<svg xmlns="http://www.w3.org/2000/svg" xmlns:xlink="http://www.w3.org/1999/xlink" width="200" zoomAndPan="magnify" viewBox="0 0 150 149.999998" height="200" preserveAspectRatio="xMidYMid meet" version="1.0"><defs><linearGradient x1="0" gradientTransform="matrix(0.75, 0, 0, 0.75, 0.00000125, 0.000002)" y1="100" x2="199.999992" gradientUnits="userSpaceOnUse" y2="100" id="aa3770f378"><stop stop-opacity="1" stop-color="rgb(100%, 69.799805%, 30.198669%)" offset="0"/><stop stop-opacity="1" stop-color="rgb(100%, 69.934082%, 30.235291%)" offset="0.015625"/><stop stop-opacity="1" stop-color="rgb(100%, 70.202637%, 30.308533%)" offset="0.03125"/><stop stop-opacity="1" stop-color="rgb(100%, 70.472717%, 30.383301%)" offset="0.046875"/><stop stop-opacity="1" stop-color="rgb(100%, 70.742798%, 30.456543%)" offset="0.0625"/><stop stop-opacity="1" stop-color="rgb(100%, 71.012878%, 30.529785%)" offset="0.078125"/><stop stop-opacity="1" stop-color="rgb(100%, 71.281433%, 30.603027%)" offset="0.09375"/><stop stop-opacity="1" stop-color="rgb(100%, 71.551514%, 30.67627%)" offset="0.109375"/><stop stop-opacity="1" stop-color="rgb(100%, 71.821594%, 30.749512%)" offset="0.125"/><stop stop-opacity="1" stop-color="rgb(100%, 72.091675%, 30.822754%)" offset="0.140625"/><stop stop-opacity="1" stop-color="rgb(100%, 72.360229%, 30.897522%)" offset="0.15625"/><stop stop-opacity="1" stop-color="rgb(100%, 72.63031%, 30.970764%)" offset="0.171875"/><stop stop-opacity="1" stop-color="rgb(100%, 72.900391%, 31.044006%)" offset="0.1875"/><stop stop-opacity="1" stop-color="rgb(100%, 73.170471%, 31.117249%)" offset="0.203125"/><stop stop-opacity="1" stop-color="rgb(100%, 73.439026%, 31.190491%)" offset="0.21875"/><stop stop-opacity="1" stop-color="rgb(100%, 73.709106%, 31.263733%)" offset="0.234375"/><stop stop-opacity="1" stop-color="rgb(100%, 73.979187%, 31.336975%)" offset="0.25"/><stop stop-opacity="1" stop-color="rgb(100%, 74.249268%, 31.410217%)" offset="0.265625"/><stop stop-opacity="1" stop-color="rgb(100%, 74.517822%, 31.484985%)" offset="0.28125"/><stop stop-opacity="1" stop-color="rgb(100%, 74.787903%, 31.558228%)" offset="0.296875"/><stop stop-opacity="1" stop-color="rgb(100%, 75.057983%, 31.63147%)" offset="0.3125"/><stop stop-opacity="1" stop-color="rgb(100%, 75.326538%, 31.704712%)" offset="0.328125"/><stop stop-opacity="1" stop-color="rgb(100%, 75.596619%, 31.777954%)" offset="0.34375"/><stop stop-opacity="1" stop-color="rgb(100%, 75.866699%, 31.851196%)" offset="0.359375"/><stop stop-opacity="1" stop-color="rgb(100%, 76.13678%, 31.924438%)" offset="0.375"/><stop stop-opacity="1" stop-color="rgb(100%, 76.405334%, 31.997681%)" offset="0.390625"/><stop stop-opacity="1" stop-color="rgb(100%, 76.675415%, 32.072449%)" offset="0.40625"/><stop stop-opacity="1" stop-color="rgb(100%, 76.945496%, 32.145691%)" offset="0.421875"/><stop stop-opacity="1" stop-color="rgb(100%, 77.215576%, 32.218933%)" offset="0.4375"/><stop stop-opacity="1" stop-color="rgb(100%, 77.484131%, 32.292175%)" offset="0.453125"/><stop stop-opacity="1" stop-color="rgb(100%, 77.754211%, 32.365417%)" offset="0.46875"/><stop stop-opacity="1" stop-color="rgb(100%, 78.024292%, 32.43866%)" offset="0.484375"/><stop stop-opacity="1" stop-color="rgb(100%, 78.294373%, 32.511902%)" offset="0.5"/><stop stop-opacity="1" stop-color="rgb(100%, 78.562927%, 32.585144%)" offset="0.515625"/><stop stop-opacity="1" stop-color="rgb(100%, 78.833008%, 32.659912%)" offset="0.53125"/><stop stop-opacity="1" stop-color="rgb(100%, 79.103088%, 32.733154%)" offset="0.546875"/><stop stop-opacity="1" stop-color="rgb(100%, 79.373169%, 32.806396%)" offset="0.5625"/><stop stop-opacity="1" stop-color="rgb(100%, 79.641724%, 32.879639%)" offset="0.578125"/><stop stop-opacity="1" stop-color="rgb(100%, 79.911804%, 32.952881%)" offset="0.59375"/><stop stop-opacity="1" stop-color="rgb(100%, 80.181885%, 33.026123%)" offset="0.609375"/><stop stop-opacity="1" stop-color="rgb(100%, 80.451965%, 33.099365%)" offset="0.625"/><stop stop-opacity="1" stop-color="rgb(100%, 80.72052%, 33.172607%)" offset="0.640625"/><stop stop-opacity="1" stop-color="rgb(100%, 80.990601%, 33.247375%)" offset="0.65625"/><stop stop-opacity="1" stop-color="rgb(100%, 81.260681%, 33.320618%)" offset="0.671875"/><stop stop-opacity="1" stop-color="rgb(100%, 81.530762%, 33.39386%)" offset="0.6875"/><stop stop-opacity="1" stop-color="rgb(100%, 81.799316%, 33.467102%)" offset="0.703125"/><stop stop-opacity="1" stop-color="rgb(100%, 82.069397%, 33.540344%)" offset="0.71875"/><stop stop-opacity="1" stop-color="rgb(100%, 82.339478%, 33.613586%)" offset="0.734375"/><stop stop-opacity="1" stop-color="rgb(100%, 82.609558%, 33.686829%)" offset="0.75"/><stop stop-opacity="1" stop-color="rgb(100%, 82.878113%, 33.761597%)" offset="0.765625"/><stop stop-opacity="1" stop-color="rgb(100%, 83.148193%, 33.834839%)" offset="0.78125"/><stop stop-opacity="1" stop-color="rgb(100%, 83.418274%, 33.908081%)" offset="0.796875"/><stop stop-opacity="1" stop-color="rgb(100%, 83.686829%, 33.981323%)" offset="0.8125"/><stop stop-opacity="1" stop-color="rgb(100%, 83.956909%, 34.054565%)" offset="0.828125"/><stop stop-opacity="1" stop-color="rgb(100%, 84.22699%, 34.127808%)" offset="0.84375"/><stop stop-opacity="1" stop-color="rgb(100%, 84.49707%, 34.20105%)" offset="0.859375"/><stop stop-opacity="1" stop-color="rgb(100%, 84.765625%, 34.274292%)" offset="0.875"/><stop stop-opacity="1" stop-color="rgb(100%, 85.035706%, 34.34906%)" offset="0.890625"/><stop stop-opacity="1" stop-color="rgb(100%, 85.305786%, 34.422302%)" offset="0.90625"/><stop stop-opacity="1" stop-color="rgb(100%, 85.575867%, 34.495544%)" offset="0.921875"/><stop stop-opacity="1" stop-color="rgb(100%, 85.844421%, 34.568787%)" offset="0.9375"/><stop stop-opacity="1" stop-color="rgb(100%, 86.114502%, 34.642029%)" offset="0.953125"/><stop stop-opacity="1" stop-color="rgb(100%, 86.384583%, 34.715271%)" offset="0.96875"/><stop stop-opacity="1" stop-color="rgb(100%, 86.654663%, 34.788513%)" offset="0.984375"/><stop stop-opacity="1" stop-color="rgb(100%, 86.923218%, 34.861755%)" offset="1"/></linearGradient><clipPath id="e7a1e71a67"><path d="M 37 68 L 100 68 L 100 123.441406 L 37 123.441406 Z M 37 68 " clip-rule="nonzero"/></clipPath><clipPath id="9541fbaeec"><path d="M 59 26.691406 L 78 26.691406 L 78 56 L 59 56 Z M 59 26.691406 " clip-rule="nonzero"/></clipPath><clipPath id="0fd1acea8e"><path d="M 39 121 L 98 121 L 98 123.441406 L 39 123.441406 Z M 39 121 " clip-rule="nonzero"/></clipPath></defs><rect x="-15" width="180" fill="#ffffff" y="-15" height="179.999997" fill-opacity="1"/><rect x="-15" fill="url(#aa3770f378)" width="180" y="-15" height="179.999997"/><path fill="#000000" d="M 54.121094 95.214844 C 53.894531 95.214844 53.613281 95.101562 53.441406 94.929688 C 53.046875 94.535156 53.046875 93.96875 53.441406 93.570312 L 53.613281 93.402344 C 53.953125 93.0625 54.578125 93.0625 54.972656 93.402344 C 55.3125 93.796875 55.3125 94.363281 54.972656 94.761719 L 54.804688 94.929688 C 54.578125 95.101562 54.347656 95.214844 54.121094 95.214844 Z M 54.121094 95.214844 " fill-opacity="1" fill-rule="evenodd"/><path fill="#000000" d="M 48.964844 100.371094 C 48.738281 100.371094 48.453125 100.257812 48.285156 100.089844 C 47.945312 99.691406 47.945312 99.125 48.285156 98.730469 L 48.453125 98.558594 C 48.796875 98.21875 49.417969 98.21875 49.816406 98.558594 C 50.15625 98.957031 50.15625 99.523438 49.816406 99.917969 L 49.644531 100.089844 C 49.417969 100.257812 49.191406 100.371094 48.964844 100.371094 Z M 48.964844 100.371094 " fill-opacity="1" fill-rule="evenodd"/><path fill="#000000" d="M 54.578125 100.824219 C 54.347656 100.824219 54.121094 100.769531 53.953125 100.542969 C 53.554688 100.203125 53.554688 99.578125 53.953125 99.238281 L 54.121094 99.070312 C 54.460938 98.671875 55.085938 98.671875 55.425781 99.070312 C 55.824219 99.410156 55.824219 100.03125 55.425781 100.371094 L 55.257812 100.542969 C 55.085938 100.769531 54.859375 100.824219 54.578125 100.824219 Z M 54.578125 100.824219 " fill-opacity="1" fill-rule="evenodd"/><path fill="#000000" d="M 104.679688 77.191406 C 104.113281 77.191406 103.714844 76.792969 103.714844 76.285156 C 103.714844 76.226562 103.714844 76.226562 103.714844 76.171875 C 103.660156 72.601562 100.710938 69.652344 97.140625 69.652344 C 96.632812 69.652344 96.179688 69.257812 96.179688 68.746094 C 96.179688 68.234375 96.632812 67.78125 97.140625 67.78125 C 97.140625 67.78125 97.199219 67.78125 97.199219 67.78125 C 100.769531 67.726562 103.714844 64.835938 103.714844 61.207031 C 103.714844 60.699219 104.113281 60.242188 104.625 60.242188 C 105.191406 60.242188 105.585938 60.699219 105.585938 61.207031 C 105.585938 64.835938 108.535156 67.78125 112.160156 67.78125 C 112.671875 67.78125 113.125 68.234375 113.125 68.746094 C 113.125 69.257812 112.671875 69.652344 112.160156 69.652344 C 112.160156 69.652344 112.105469 69.652344 112.105469 69.652344 C 108.535156 69.710938 105.585938 72.65625 105.585938 76.285156 C 105.585938 76.792969 105.191406 77.191406 104.679688 77.191406 Z M 100.996094 68.746094 C 102.582031 69.539062 103.828125 70.785156 104.679688 72.375 C 105.472656 70.785156 106.71875 69.539062 108.308594 68.746094 C 106.71875 67.894531 105.472656 66.648438 104.679688 65.0625 C 103.828125 66.648438 102.582031 67.894531 100.996094 68.746094 Z M 100.996094 68.746094 " fill-opacity="1" fill-rule="evenodd"/><path fill="#000000" d="M 92.722656 69.484375 C 92.210938 69.484375 91.8125 69.027344 91.8125 68.519531 C 91.8125 66.023438 89.773438 64.042969 87.28125 64.042969 C 86.769531 64.042969 86.371094 63.644531 86.371094 63.078125 C 86.371094 62.566406 86.769531 62.171875 87.28125 62.171875 C 87.335938 62.171875 87.335938 62.171875 87.335938 62.171875 C 89.832031 62.113281 91.8125 60.128906 91.8125 57.695312 C 91.8125 57.125 92.210938 56.730469 92.722656 56.730469 C 93.289062 56.730469 93.683594 57.125 93.683594 57.695312 C 93.683594 60.128906 95.726562 62.171875 98.160156 62.171875 C 98.671875 62.171875 99.125 62.566406 99.125 63.078125 C 99.125 63.644531 98.671875 64.042969 98.160156 64.042969 C 98.160156 64.042969 98.160156 64.042969 98.105469 64.042969 C 95.667969 64.042969 93.683594 66.082031 93.683594 68.519531 C 93.683594 69.027344 93.230469 69.484375 92.722656 69.484375 Z M 90.625 63.078125 C 91.472656 63.644531 92.210938 64.324219 92.722656 65.175781 C 93.230469 64.324219 93.96875 63.589844 94.816406 63.078125 C 93.96875 62.566406 93.230469 61.832031 92.722656 60.980469 C 92.210938 61.832031 91.472656 62.566406 90.625 63.078125 Z M 90.625 63.078125 " fill-opacity="1" fill-rule="evenodd"/><g clip-path="url(#e7a1e71a67)"><path fill="#000000" d="M 79.402344 123.441406 L 57.464844 123.441406 C 56.898438 123.441406 56.445312 123.328125 55.9375 123.101562 C 44.429688 118.113281 37.007812 106.777344 37.007812 94.25 C 37.007812 84.332031 41.539062 75.152344 49.476562 69.140625 C 50.210938 68.632812 50.949219 68.347656 51.855469 68.347656 L 85.070312 68.347656 C 85.917969 68.347656 86.710938 68.632812 87.394531 69.140625 C 90.339844 71.410156 92.835938 74.074219 94.875 77.191406 C 95.101562 77.53125 95.042969 78.042969 94.703125 78.382812 L 90.113281 82.972656 C 88.867188 84.21875 88.1875 85.863281 88.1875 87.675781 C 88.1875 89.433594 88.867188 91.078125 90.113281 92.324219 C 92.324219 94.535156 95.78125 94.875 98.386719 93.117188 C 98.730469 92.890625 99.070312 92.890625 99.410156 93.0625 C 99.691406 93.230469 99.863281 93.570312 99.863281 93.910156 L 99.863281 94.25 C 99.863281 106.777344 92.4375 118.113281 80.933594 123.101562 C 80.421875 123.328125 79.96875 123.441406 79.402344 123.441406 Z M 51.855469 70.277344 C 51.34375 70.277344 51.003906 70.390625 50.609375 70.671875 C 43.128906 76.285156 38.875 84.898438 38.875 94.25 C 38.875 106.039062 45.847656 116.640625 56.671875 121.34375 C 56.957031 121.457031 57.183594 121.511719 57.464844 121.511719 L 79.402344 121.511719 C 79.683594 121.511719 79.910156 121.457031 80.195312 121.34375 C 90.625 116.808594 97.480469 106.777344 97.933594 95.496094 C 94.875 96.746094 91.191406 96.066406 88.753906 93.628906 C 87.167969 92.039062 86.257812 89.886719 86.257812 87.621094 C 86.257812 85.351562 87.167969 83.253906 88.753906 81.667969 L 92.835938 77.53125 C 91.019531 74.921875 88.808594 72.601562 86.257812 70.671875 C 85.863281 70.390625 85.523438 70.277344 85.011719 70.277344 Z M 51.855469 70.277344 " fill-opacity="1" fill-rule="evenodd"/></g><path fill="#000000" d="M 78.949219 118.453125 L 57.921875 118.453125 C 57.75 118.453125 57.636719 118.453125 57.523438 118.394531 C 48.058594 114.089844 41.9375 104.625 41.9375 94.25 C 41.9375 86.144531 45.5625 78.609375 51.914062 73.507812 C 52.082031 73.394531 52.308594 73.335938 52.480469 73.335938 L 84.332031 73.335938 C 84.558594 73.335938 84.785156 73.394531 84.957031 73.507812 C 87.507812 75.546875 89.601562 78.042969 91.246094 80.816406 C 91.472656 81.160156 91.417969 81.667969 91.132812 81.953125 L 90.058594 83.027344 C 88.808594 84.21875 88.128906 85.917969 88.128906 87.675781 C 88.128906 89.433594 88.808594 91.078125 90.058594 92.324219 C 91.132812 93.402344 92.550781 94.023438 94.082031 94.195312 C 94.535156 94.25 94.929688 94.648438 94.929688 95.15625 C 94.535156 105.304688 88.582031 114.203125 79.34375 118.394531 C 79.230469 118.453125 79.117188 118.453125 78.949219 118.453125 Z M 58.089844 116.582031 L 78.777344 116.582031 C 86.996094 112.785156 92.378906 104.90625 93.003906 95.953125 C 91.359375 95.613281 89.886719 94.816406 88.753906 93.628906 C 87.167969 92.039062 86.257812 89.886719 86.257812 87.621094 C 86.257812 85.351562 87.167969 83.253906 88.753906 81.667969 L 89.261719 81.160156 C 87.847656 78.890625 86.089844 76.90625 84.050781 75.207031 L 52.875 75.207031 C 47.09375 79.910156 43.808594 86.828125 43.808594 94.25 C 43.808594 103.828125 49.417969 112.558594 58.089844 116.582031 Z M 58.089844 116.582031 " fill-opacity="1" fill-rule="evenodd"/><path fill="#000000" d="M 86.882812 101.675781 C 79.683594 101.675781 72.996094 99.636719 66.875 95.667969 C 58.828125 90.398438 51.003906 88.414062 43.636719 89.886719 C 43.128906 90 42.617188 89.660156 42.503906 89.148438 C 42.390625 88.640625 42.730469 88.128906 43.242188 88.015625 C 48.683594 86.941406 57.351562 87.167969 67.953125 94.082031 C 75.492188 99.011719 83.9375 100.769531 93.117188 99.238281 C 93.683594 99.183594 94.136719 99.523438 94.25 100.03125 C 94.308594 100.542969 93.96875 101.050781 93.457031 101.109375 C 91.191406 101.507812 89.035156 101.675781 86.882812 101.675781 Z M 86.882812 101.675781 " fill-opacity="1" fill-rule="evenodd"/><path fill="#000000" d="M 67.386719 95.78125 C 67.160156 95.78125 66.875 95.667969 66.707031 95.496094 C 66.367188 95.101562 66.367188 94.476562 66.761719 94.136719 C 67.101562 93.855469 75.035156 87.054688 88.128906 89.886719 C 88.640625 90 88.921875 90.511719 88.808594 91.019531 C 88.753906 91.53125 88.1875 91.871094 87.734375 91.757812 C 75.546875 89.09375 68.121094 95.496094 68.007812 95.554688 C 67.839844 95.726562 67.613281 95.78125 67.386719 95.78125 Z M 67.386719 95.78125 " fill-opacity="1" fill-rule="evenodd"/><path fill="#000000" d="M 83.878906 70.277344 L 52.988281 70.277344 C 52.480469 70.277344 52.027344 69.824219 52.027344 69.3125 L 52.027344 64.664062 C 52.027344 62.625 53.667969 61.039062 55.652344 61.039062 L 81.214844 61.039062 C 83.199219 61.039062 84.84375 62.625 84.84375 64.664062 L 84.84375 69.3125 C 84.84375 69.824219 84.445312 70.277344 83.878906 70.277344 Z M 53.894531 68.347656 L 82.972656 68.347656 L 82.972656 64.664062 C 82.972656 63.703125 82.179688 62.90625 81.214844 62.90625 L 55.652344 62.90625 C 54.691406 62.90625 53.894531 63.703125 53.894531 64.664062 Z M 53.894531 68.347656 " fill-opacity="1" fill-rule="evenodd"/><path fill="#000000" d="M 77.984375 62.90625 L 58.882812 62.90625 C 58.375 62.90625 57.976562 62.511719 57.976562 62 L 57.976562 57.296875 C 57.976562 55.3125 59.5625 53.667969 61.605469 53.667969 L 75.265625 53.667969 C 77.304688 53.667969 78.890625 55.3125 78.890625 57.296875 L 78.890625 61.945312 C 78.890625 62.511719 78.496094 62.90625 77.984375 62.90625 Z M 59.847656 61.039062 L 77.019531 61.039062 L 77.019531 57.296875 C 77.019531 56.332031 76.226562 55.597656 75.265625 55.597656 L 61.605469 55.597656 C 60.640625 55.597656 59.847656 56.332031 59.847656 57.296875 Z M 59.847656 61.039062 " fill-opacity="1" fill-rule="evenodd"/><g clip-path="url(#9541fbaeec)"><path fill="#000000" d="M 71.296875 55.597656 L 65.628906 55.597656 C 65.0625 55.597656 64.664062 55.144531 64.664062 54.632812 C 64.664062 45.90625 62.792969 43.296875 61.265625 41.257812 C 60.242188 39.839844 59.28125 38.480469 59.28125 35.816406 C 59.28125 30.769531 63.417969 26.691406 68.40625 26.691406 C 73.449219 26.691406 77.585938 30.769531 77.585938 35.816406 C 77.585938 38.480469 76.625 39.839844 75.605469 41.257812 C 74.074219 43.296875 72.203125 45.90625 72.203125 54.632812 C 72.203125 55.144531 71.804688 55.597656 71.296875 55.597656 Z M 66.535156 53.667969 L 70.332031 53.667969 C 70.445312 45.109375 72.542969 42.21875 74.074219 40.125 C 74.980469 38.820312 75.660156 37.855469 75.660156 35.816406 C 75.660156 31.847656 72.429688 28.5625 68.40625 28.5625 C 64.4375 28.5625 61.207031 31.847656 61.207031 35.816406 C 61.207031 37.855469 61.886719 38.820312 62.792969 40.125 C 64.324219 42.21875 66.367188 45.109375 66.535156 53.667969 Z M 66.535156 53.667969 " fill-opacity="1" fill-rule="evenodd"/></g><path fill="#000000" d="M 94.703125 96.121094 C 92.550781 96.121094 90.398438 95.269531 88.753906 93.628906 C 85.410156 90.339844 85.410156 84.957031 88.753906 81.667969 L 94.082031 76.339844 C 94.421875 76 95.042969 76 95.382812 76.339844 L 100.710938 81.667969 C 104.054688 84.957031 104.054688 90.339844 100.710938 93.628906 C 99.070312 95.269531 96.914062 96.121094 94.703125 96.121094 Z M 94.703125 78.324219 L 90.058594 82.972656 C 87.507812 85.578125 87.507812 89.714844 90.058594 92.324219 C 92.664062 94.875 96.800781 94.875 99.410156 92.324219 C 101.960938 89.714844 101.960938 85.578125 99.410156 82.972656 Z M 94.703125 78.324219 " fill-opacity="1" fill-rule="evenodd"/><path fill="#000000" d="M 53.726562 52.988281 C 53.214844 52.988281 52.820312 52.59375 52.820312 52.027344 C 52.761719 49.53125 50.777344 47.546875 48.285156 47.546875 C 47.773438 47.546875 47.378906 47.152344 47.378906 46.585938 C 47.378906 46.074219 47.773438 45.675781 48.285156 45.675781 C 48.339844 45.675781 48.339844 45.675781 48.339844 45.675781 C 50.835938 45.621094 52.820312 43.636719 52.820312 41.199219 C 52.820312 40.632812 53.214844 40.238281 53.726562 40.238281 C 54.292969 40.238281 54.691406 40.632812 54.691406 41.199219 C 54.691406 43.636719 56.730469 45.675781 59.167969 45.675781 C 59.675781 45.675781 60.128906 46.074219 60.128906 46.585938 C 60.128906 47.152344 59.675781 47.546875 59.167969 47.546875 C 59.167969 47.546875 59.167969 47.546875 59.109375 47.546875 C 56.671875 47.546875 54.691406 49.589844 54.691406 52.027344 C 54.691406 52.59375 54.234375 52.988281 53.726562 52.988281 Z M 51.628906 46.585938 C 52.480469 47.152344 53.214844 47.832031 53.726562 48.683594 C 54.234375 47.832031 54.972656 47.152344 55.824219 46.640625 C 54.972656 46.074219 54.234375 45.394531 53.726562 44.542969 C 53.214844 45.335938 52.480469 46.074219 51.628906 46.585938 Z M 51.628906 46.585938 " fill-opacity="1" fill-rule="evenodd"/><path fill="#000000" d="M 78.097656 81.78125 C 77.8125 81.78125 77.585938 81.667969 77.417969 81.5 C 77.019531 81.160156 77.019531 80.535156 77.417969 80.195312 L 77.585938 80.023438 C 77.925781 79.628906 78.550781 79.628906 78.890625 80.023438 C 79.289062 80.363281 79.289062 80.988281 78.890625 81.328125 L 78.722656 81.5 C 78.550781 81.667969 78.324219 81.78125 78.097656 81.78125 Z M 78.097656 81.78125 " fill-opacity="1" fill-rule="evenodd"/><path fill="#000000" d="M 59.507812 84.898438 C 59.28125 84.898438 58.996094 84.785156 58.828125 84.617188 C 58.488281 84.21875 58.488281 83.652344 58.828125 83.253906 L 58.996094 83.085938 C 59.394531 82.746094 59.960938 82.746094 60.355469 83.085938 C 60.699219 83.480469 60.699219 84.050781 60.355469 84.445312 L 60.1875 84.617188 C 60.015625 84.785156 59.734375 84.898438 59.507812 84.898438 Z M 59.507812 84.898438 " fill-opacity="1" fill-rule="evenodd"/><path fill="#000000" d="M 77.246094 106.550781 C 77.019531 106.550781 76.792969 106.4375 76.566406 106.265625 C 76.226562 105.871094 76.226562 105.304688 76.566406 104.90625 L 76.738281 104.738281 C 77.132812 104.398438 77.699219 104.398438 78.097656 104.738281 C 78.4375 105.132812 78.4375 105.699219 78.097656 106.097656 L 77.925781 106.265625 C 77.757812 106.4375 77.472656 106.550781 77.246094 106.550781 Z M 77.246094 106.550781 " fill-opacity="1" fill-rule="evenodd"/><path fill="#000000" d="M 63.644531 111.707031 C 63.417969 111.707031 63.132812 111.59375 62.964844 111.425781 C 62.625 111.027344 62.625 110.460938 62.964844 110.0625 L 63.132812 109.894531 C 63.53125 109.554688 64.097656 109.554688 64.496094 109.894531 C 64.835938 110.292969 64.835938 110.859375 64.496094 111.253906 L 64.324219 111.425781 C 64.097656 111.59375 63.871094 111.707031 63.644531 111.707031 Z M 63.644531 111.707031 " fill-opacity="1" fill-rule="evenodd"/><path fill="#000000" d="M 68.179688 38.253906 C 67.953125 38.253906 67.726562 38.195312 67.5 37.96875 C 67.160156 37.628906 67.160156 37.007812 67.5 36.664062 L 67.667969 36.496094 C 68.066406 36.097656 68.632812 36.097656 69.027344 36.496094 C 69.371094 36.835938 69.371094 37.460938 69.027344 37.855469 L 68.859375 37.96875 C 68.632812 38.195312 68.40625 38.253906 68.179688 38.253906 Z M 68.179688 38.253906 " fill-opacity="1" fill-rule="evenodd"/><g clip-path="url(#0fd1acea8e)"><path fill="#000000" d="M 96.292969 123.441406 L 40.578125 123.441406 C 40.066406 123.441406 39.667969 122.988281 39.667969 122.476562 C 39.667969 121.964844 40.066406 121.511719 40.578125 121.511719 L 96.292969 121.511719 C 96.800781 121.511719 97.199219 121.964844 97.199219 122.476562 C 97.199219 122.988281 96.800781 123.441406 96.292969 123.441406 Z M 96.292969 123.441406 " fill-opacity="1" fill-rule="evenodd"/></g></svg>