<svg xmlns="http://www.w3.org/2000/svg" xmlns:xlink="http://www.w3.org/1999/xlink" width="200" zoomAndPan="magnify" viewBox="0 0 150 149.999998" height="200" preserveAspectRatio="xMidYMid meet" version="1.0"><defs><linearGradient x1="0" gradientTransform="matrix(0.75, 0, 0, 0.75, 0.00000125, 0.000002)" y1="100" x2="199.999992" gradientUnits="userSpaceOnUse" y2="100" id="b1f33b5618"><stop stop-opacity="1" stop-color="rgb(100%, 69.799805%, 30.198669%)" offset="0"/><stop stop-opacity="1" stop-color="rgb(100%, 69.934082%, 30.235291%)" offset="0.015625"/><stop stop-opacity="1" stop-color="rgb(100%, 70.202637%, 30.308533%)" offset="0.03125"/><stop stop-opacity="1" stop-color="rgb(100%, 70.472717%, 30.383301%)" offset="0.046875"/><stop stop-opacity="1" stop-color="rgb(100%, 70.742798%, 30.456543%)" offset="0.0625"/><stop stop-opacity="1" stop-color="rgb(100%, 71.012878%, 30.529785%)" offset="0.078125"/><stop stop-opacity="1" stop-color="rgb(100%, 71.281433%, 30.603027%)" offset="0.09375"/><stop stop-opacity="1" stop-color="rgb(100%, 71.551514%, 30.67627%)" offset="0.109375"/><stop stop-opacity="1" stop-color="rgb(100%, 71.821594%, 30.749512%)" offset="0.125"/><stop stop-opacity="1" stop-color="rgb(100%, 72.091675%, 30.822754%)" offset="0.140625"/><stop stop-opacity="1" stop-color="rgb(100%, 72.360229%, 30.897522%)" offset="0.15625"/><stop stop-opacity="1" stop-color="rgb(100%, 72.63031%, 30.970764%)" offset="0.171875"/><stop stop-opacity="1" stop-color="rgb(100%, 72.900391%, 31.044006%)" offset="0.1875"/><stop stop-opacity="1" stop-color="rgb(100%, 73.170471%, 31.117249%)" offset="0.203125"/><stop stop-opacity="1" stop-color="rgb(100%, 73.439026%, 31.190491%)" offset="0.21875"/><stop stop-opacity="1" stop-color="rgb(100%, 73.709106%, 31.263733%)" offset="0.234375"/><stop stop-opacity="1" stop-color="rgb(100%, 73.979187%, 31.336975%)" offset="0.25"/><stop stop-opacity="1" stop-color="rgb(100%, 74.249268%, 31.410217%)" offset="0.265625"/><stop stop-opacity="1" stop-color="rgb(100%, 74.517822%, 31.484985%)" offset="0.28125"/><stop stop-opacity="1" stop-color="rgb(100%, 74.787903%, 31.558228%)" offset="0.296875"/><stop stop-opacity="1" stop-color="rgb(100%, 75.057983%, 31.63147%)" offset="0.3125"/><stop stop-opacity="1" stop-color="rgb(100%, 75.326538%, 31.704712%)" offset="0.328125"/><stop stop-opacity="1" stop-color="rgb(100%, 75.596619%, 31.777954%)" offset="0.34375"/><stop stop-opacity="1" stop-color="rgb(100%, 75.866699%, 31.851196%)" offset="0.359375"/><stop stop-opacity="1" stop-color="rgb(100%, 76.13678%, 31.924438%)" offset="0.375"/><stop stop-opacity="1" stop-color="rgb(100%, 76.405334%, 31.997681%)" offset="0.390625"/><stop stop-opacity="1" stop-color="rgb(100%, 76.675415%, 32.072449%)" offset="0.40625"/><stop stop-opacity="1" stop-color="rgb(100%, 76.945496%, 32.145691%)" offset="0.421875"/><stop stop-opacity="1" stop-color="rgb(100%, 77.215576%, 32.218933%)" offset="0.4375"/><stop stop-opacity="1" stop-color="rgb(100%, 77.484131%, 32.292175%)" offset="0.453125"/><stop stop-opacity="1" stop-color="rgb(100%, 77.754211%, 32.365417%)" offset="0.46875"/><stop stop-opacity="1" stop-color="rgb(100%, 78.024292%, 32.43866%)" offset="0.484375"/><stop stop-opacity="1" stop-color="rgb(100%, 78.294373%, 32.511902%)" offset="0.5"/><stop stop-opacity="1" stop-color="rgb(100%, 78.562927%, 32.585144%)" offset="0.515625"/><stop stop-opacity="1" stop-color="rgb(100%, 78.833008%, 32.659912%)" offset="0.53125"/><stop stop-opacity="1" stop-color="rgb(100%, 79.103088%, 32.733154%)" offset="0.546875"/><stop stop-opacity="1" stop-color="rgb(100%, 79.373169%, 32.806396%)" offset="0.5625"/><stop stop-opacity="1" stop-color="rgb(100%, 79.641724%, 32.879639%)" offset="0.578125"/><stop stop-opacity="1" stop-color="rgb(100%, 79.911804%, 32.952881%)" offset="0.59375"/><stop stop-opacity="1" stop-color="rgb(100%, 80.181885%, 33.026123%)" offset="0.609375"/><stop stop-opacity="1" stop-color="rgb(100%, 80.451965%, 33.099365%)" offset="0.625"/><stop stop-opacity="1" stop-color="rgb(100%, 80.72052%, 33.172607%)" offset="0.640625"/><stop stop-opacity="1" stop-color="rgb(100%, 80.990601%, 33.247375%)" offset="0.65625"/><stop stop-opacity="1" stop-color="rgb(100%, 81.260681%, 33.320618%)" offset="0.671875"/><stop stop-opacity="1" stop-color="rgb(100%, 81.530762%, 33.39386%)" offset="0.6875"/><stop stop-opacity="1" stop-color="rgb(100%, 81.799316%, 33.467102%)" offset="0.703125"/><stop stop-opacity="1" stop-color="rgb(100%, 82.069397%, 33.540344%)" offset="0.71875"/><stop stop-opacity="1" stop-color="rgb(100%, 82.339478%, 33.613586%)" offset="0.734375"/><stop stop-opacity="1" stop-color="rgb(100%, 82.609558%, 33.686829%)" offset="0.75"/><stop stop-opacity="1" stop-color="rgb(100%, 82.878113%, 33.761597%)" offset="0.765625"/><stop stop-opacity="1" stop-color="rgb(100%, 83.148193%, 33.834839%)" offset="0.78125"/><stop stop-opacity="1" stop-color="rgb(100%, 83.418274%, 33.908081%)" offset="0.796875"/><stop stop-opacity="1" stop-color="rgb(100%, 83.686829%, 33.981323%)" offset="0.8125"/><stop stop-opacity="1" stop-color="rgb(100%, 83.956909%, 34.054565%)" offset="0.828125"/><stop stop-opacity="1" stop-color="rgb(100%, 84.22699%, 34.127808%)" offset="0.84375"/><stop stop-opacity="1" stop-color="rgb(100%, 84.49707%, 34.20105%)" offset="0.859375"/><stop stop-opacity="1" stop-color="rgb(100%, 84.765625%, 34.274292%)" offset="0.875"/><stop stop-opacity="1" stop-color="rgb(100%, 85.035706%, 34.34906%)" offset="0.890625"/><stop stop-opacity="1" stop-color="rgb(100%, 85.305786%, 34.422302%)" offset="0.90625"/><stop stop-opacity="1" stop-color="rgb(100%, 85.575867%, 34.495544%)" offset="0.921875"/><stop stop-opacity="1" stop-color="rgb(100%, 85.844421%, 34.568787%)" offset="0.9375"/><stop stop-opacity="1" stop-color="rgb(100%, 86.114502%, 34.642029%)" offset="0.953125"/><stop stop-opacity="1" stop-color="rgb(100%, 86.384583%, 34.715271%)" offset="0.96875"/><stop stop-opacity="1" stop-color="rgb(100%, 86.654663%, 34.788513%)" offset="0.984375"/><stop stop-opacity="1" stop-color="rgb(100%, 86.923218%, 34.861755%)" offset="1"/></linearGradient><clipPath id="72e4dac11b"><path d="M 25 26.542969 L 125.15625 26.542969 L 125.15625 123.292969 L 25 123.292969 Z M 25 26.542969 " clip-rule="nonzero"/></clipPath></defs><rect x="-15" width="180" fill="#ffffff" y="-15" height="179.999997" fill-opacity="1"/><rect x="-15" fill="url(#b1f33b5618)" width="180" y="-15" height="179.999997"/><g clip-path="url(#72e4dac11b)"><path fill="#122620" d="M 105.226562 90.519531 C 105.203125 90.523438 105.179688 90.53125 105.15625 90.542969 L 80.828125 99.101562 C 80.351562 96.765625 78.976562 94.390625 76.554688 93.3125 L 60.117188 85.964844 C 56.109375 84.175781 52.65625 84.875 49.808594 85.796875 L 39.621094 89.09375 L 39.144531 87.472656 C 39.03125 87.082031 38.847656 86.730469 38.589844 86.414062 C 38.335938 86.09375 38.03125 85.839844 37.671875 85.644531 C 37.316406 85.449219 36.933594 85.328125 36.53125 85.285156 C 36.125 85.242188 35.726562 85.277344 35.335938 85.390625 L 27.324219 87.734375 C 26.933594 87.851562 26.578125 88.035156 26.261719 88.289062 C 25.945312 88.546875 25.6875 88.851562 25.492188 89.207031 C 25.296875 89.566406 25.175781 89.945312 25.128906 90.351562 C 25.085938 90.753906 25.121094 91.152344 25.234375 91.542969 L 33.8125 120.878906 C 33.929688 121.269531 34.113281 121.621094 34.367188 121.941406 C 34.621094 122.257812 34.929688 122.515625 35.285156 122.710938 C 35.644531 122.90625 36.023438 123.027344 36.429688 123.070312 C 36.832031 123.117188 37.230469 123.082031 37.621094 122.96875 L 45.648438 120.621094 C 46.039062 120.503906 46.390625 120.320312 46.707031 120.0625 C 47.023438 119.808594 47.277344 119.503906 47.472656 119.148438 C 47.667969 118.789062 47.785156 118.410156 47.832031 118.007812 C 47.875 117.601562 47.839844 117.207031 47.726562 116.816406 L 47.089844 114.648438 L 50.183594 113.839844 L 64.316406 119.007812 C 66.4375 119.785156 68.644531 120.488281 70.902344 120.488281 C 72.460938 120.5 73.9375 120.148438 75.324219 119.4375 L 106.785156 103.359375 C 106.796875 103.351562 106.808594 103.347656 106.816406 103.34375 C 107.097656 103.1875 107.394531 103.039062 107.707031 102.878906 C 110.097656 101.65625 113.714844 99.808594 112.265625 94.855469 C 111.316406 91.609375 108.160156 89.664062 105.226562 90.519531 Z M 45.074219 117.835938 C 45.03125 117.917969 44.964844 117.972656 44.878906 118 L 36.859375 120.34375 C 36.769531 120.367188 36.683594 120.359375 36.601562 120.3125 C 36.523438 120.269531 36.46875 120.203125 36.4375 120.113281 L 27.859375 90.777344 C 27.832031 90.6875 27.84375 90.601562 27.890625 90.519531 C 27.933594 90.441406 27.996094 90.386719 28.085938 90.359375 L 36.109375 88.011719 C 36.136719 88.003906 36.167969 88 36.199219 88 C 36.257812 88 36.308594 88.015625 36.359375 88.042969 C 36.441406 88.085938 36.496094 88.152344 36.519531 88.238281 L 45.105469 117.585938 C 45.128906 117.675781 45.121094 117.757812 45.074219 117.835938 Z M 106.464844 100.445312 C 106.15625 100.601562 105.835938 100.765625 105.527344 100.933594 L 74.085938 117 C 71.523438 118.304688 69.003906 117.8125 65.257812 116.441406 L 50.71875 111.125 C 50.453125 111.027344 50.179688 111.011719 49.902344 111.085938 L 46.324219 112.023438 L 40.386719 91.71875 L 50.648438 88.394531 C 54.03125 87.300781 56.453125 87.320312 59 88.457031 L 75.441406 95.804688 C 77.113281 96.550781 78.285156 98.671875 78.289062 100.960938 C 78.289062 100.96875 78.289062 100.972656 78.289062 100.980469 C 78.289062 100.988281 78.289062 100.992188 78.289062 101 C 78.289062 101.660156 78.171875 102.300781 77.9375 102.921875 C 76.859375 105.769531 74.066406 105.875 72.003906 105.097656 L 60.9375 100.945312 C 60.769531 100.882812 60.59375 100.851562 60.410156 100.859375 C 60.230469 100.863281 60.058594 100.90625 59.890625 100.980469 C 59.726562 101.054688 59.582031 101.160156 59.460938 101.292969 C 59.335938 101.425781 59.242188 101.574219 59.179688 101.746094 C 59.113281 101.914062 59.085938 102.089844 59.09375 102.269531 C 59.097656 102.453125 59.136719 102.625 59.214844 102.789062 C 59.289062 102.953125 59.390625 103.097656 59.523438 103.222656 C 59.65625 103.347656 59.808594 103.441406 59.976562 103.503906 L 71.042969 107.65625 C 72.050781 108.046875 73.097656 108.246094 74.183594 108.257812 C 77.035156 108.257812 79.4375 106.683594 80.496094 103.894531 C 80.734375 103.265625 80.890625 102.617188 80.964844 101.949219 L 106.027344 93.132812 C 107.480469 92.730469 109.128906 93.863281 109.644531 95.625 C 110.421875 98.28125 109.089844 99.105469 106.464844 100.445312 Z M 76.5 52.628906 C 72.960938 53.167969 69.78125 54.859375 67.203125 57.605469 C 64.332031 60.660156 62.363281 64.914062 61.65625 69.585938 L 60.90625 74.53125 C 60.722656 75.648438 60.789062 76.746094 61.101562 77.832031 C 61.414062 78.917969 61.945312 79.882812 62.691406 80.730469 C 66.246094 84.859375 79.199219 85.183594 83.105469 85.183594 L 83.117188 85.183594 C 85.984375 85.183594 100.480469 84.964844 104.125 80.730469 C 104.875 79.882812 105.402344 78.917969 105.71875 77.832031 C 106.03125 76.746094 106.09375 75.648438 105.910156 74.53125 L 105.160156 69.589844 C 104.457031 64.914062 102.484375 60.660156 99.617188 57.605469 C 97.035156 54.859375 93.855469 53.164062 90.316406 52.628906 C 90.933594 52.117188 91.496094 51.550781 92.007812 50.933594 C 94.453125 47.960938 95.746094 43.773438 95.746094 38.824219 C 95.746094 38.015625 95.667969 37.210938 95.507812 36.417969 C 95.351562 35.625 95.117188 34.851562 94.804688 34.105469 C 94.496094 33.355469 94.117188 32.644531 93.664062 31.972656 C 93.214844 31.300781 92.703125 30.675781 92.132812 30.105469 C 91.558594 29.53125 90.933594 29.019531 90.261719 28.570312 C 89.589844 28.121094 88.878906 27.742188 88.128906 27.429688 C 87.382812 27.121094 86.609375 26.886719 85.816406 26.730469 C 85.019531 26.570312 84.21875 26.492188 83.410156 26.492188 C 82.597656 26.492188 81.796875 26.570312 81.003906 26.730469 C 80.207031 26.886719 79.4375 27.121094 78.6875 27.429688 C 77.941406 27.742188 77.230469 28.121094 76.554688 28.570312 C 75.882812 29.019531 75.261719 29.53125 74.6875 30.105469 C 74.113281 30.675781 73.601562 31.300781 73.152344 31.972656 C 72.703125 32.644531 72.324219 33.355469 72.011719 34.105469 C 71.703125 34.851562 71.46875 35.625 71.308594 36.417969 C 71.152344 37.210938 71.070312 38.015625 71.070312 38.824219 C 71.070312 43.773438 72.363281 47.960938 74.8125 50.933594 C 75.320312 51.550781 75.882812 52.117188 76.5 52.628906 Z M 102.457031 69.996094 L 103.207031 74.945312 C 103.332031 75.664062 103.292969 76.375 103.089844 77.078125 C 102.886719 77.777344 102.542969 78.402344 102.054688 78.945312 L 102.050781 78.949219 C 100.558594 80.6875 93.574219 82.449219 83.117188 82.449219 L 83.101562 82.449219 C 74.078125 82.449219 66.539062 81.011719 64.761719 78.945312 C 64.273438 78.402344 63.929688 77.777344 63.726562 77.078125 C 63.523438 76.375 63.484375 75.664062 63.609375 74.941406 L 64.359375 69.996094 C 65.472656 62.621094 70.429688 55.175781 78.996094 55.175781 L 87.820312 55.175781 C 96.386719 55.175781 101.34375 62.621094 102.457031 69.996094 Z M 83.40625 29.21875 C 84.039062 29.222656 84.664062 29.285156 85.28125 29.40625 C 85.898438 29.53125 86.5 29.710938 87.082031 29.953125 C 87.664062 30.195312 88.21875 30.492188 88.742188 30.84375 C 89.265625 31.191406 89.75 31.589844 90.195312 32.035156 C 90.640625 32.480469 91.039062 32.96875 91.390625 33.492188 C 91.742188 34.015625 92.039062 34.570312 92.277344 35.152344 C 92.519531 35.734375 92.703125 36.332031 92.828125 36.953125 C 92.949219 37.570312 93.011719 38.195312 93.011719 38.824219 C 93.011719 48.179688 88.035156 52.441406 83.410156 52.441406 C 78.78125 52.441406 73.804688 48.183594 73.804688 38.824219 C 73.804688 38.195312 73.867188 37.570312 73.988281 36.953125 C 74.113281 36.332031 74.296875 35.734375 74.539062 35.152344 C 74.78125 34.570312 75.074219 34.015625 75.425781 33.492188 C 75.777344 32.96875 76.175781 32.484375 76.621094 32.035156 C 77.066406 31.589844 77.550781 31.191406 78.074219 30.84375 C 78.597656 30.492188 79.152344 30.195312 79.734375 29.953125 C 80.316406 29.714844 80.917969 29.53125 81.535156 29.40625 C 82.152344 29.285156 82.777344 29.222656 83.40625 29.21875 Z M 34.441406 92.335938 C 34.484375 92.511719 34.496094 92.691406 34.472656 92.871094 C 34.445312 93.050781 34.386719 93.222656 34.292969 93.378906 C 34.199219 93.535156 34.082031 93.667969 33.933594 93.777344 C 33.789062 93.886719 33.625 93.964844 33.449219 94.007812 C 33.273438 94.050781 33.09375 94.058594 32.914062 94.03125 C 32.734375 94.003906 32.5625 93.945312 32.410156 93.851562 C 32.253906 93.753906 32.121094 93.632812 32.011719 93.488281 C 31.90625 93.339844 31.832031 93.175781 31.789062 93 L 31.78125 92.976562 C 31.738281 92.800781 31.730469 92.621094 31.757812 92.445312 C 31.785156 92.265625 31.84375 92.097656 31.9375 91.941406 C 32.03125 91.785156 32.148438 91.652344 32.296875 91.546875 C 32.441406 91.4375 32.601562 91.363281 32.777344 91.316406 C 32.953125 91.273438 33.128906 91.265625 33.308594 91.292969 C 33.488281 91.320312 33.65625 91.378906 33.8125 91.472656 C 33.96875 91.566406 34.097656 91.683594 34.207031 91.832031 C 34.316406 91.976562 34.390625 92.136719 34.433594 92.3125 Z M 102.367188 41.738281 L 102.367188 53.558594 C 102.367188 53.742188 102.402344 53.914062 102.472656 54.078125 C 102.542969 54.242188 102.644531 54.390625 102.773438 54.515625 C 102.898438 54.640625 103.046875 54.738281 103.214844 54.808594 C 103.378906 54.875 103.550781 54.910156 103.730469 54.910156 C 103.910156 54.910156 104.085938 54.875 104.25 54.808594 C 104.417969 54.738281 104.566406 54.640625 104.691406 54.515625 C 104.820312 54.390625 104.917969 54.242188 104.988281 54.078125 C 105.058594 53.914062 105.097656 53.742188 105.097656 53.558594 L 105.097656 41.738281 C 105.53125 41.59375 105.933594 41.386719 106.300781 41.117188 C 106.667969 40.847656 106.988281 40.527344 107.253906 40.160156 C 107.523438 39.789062 107.726562 39.386719 107.867188 38.953125 C 108.007812 38.519531 108.078125 38.074219 108.078125 37.617188 C 108.078125 37.160156 108.007812 36.714844 107.867188 36.28125 C 107.726562 35.84375 107.523438 35.441406 107.253906 35.074219 C 106.988281 34.703125 106.667969 34.382812 106.300781 34.113281 C 105.933594 33.84375 105.53125 33.636719 105.097656 33.492188 L 105.097656 31.128906 C 105.097656 30.949219 105.058594 30.777344 104.988281 30.613281 C 104.917969 30.445312 104.820312 30.300781 104.691406 30.175781 C 104.566406 30.046875 104.417969 29.949219 104.25 29.882812 C 104.085938 29.8125 103.910156 29.78125 103.730469 29.78125 C 103.550781 29.78125 103.378906 29.8125 103.214844 29.882812 C 103.046875 29.949219 102.898438 30.046875 102.773438 30.175781 C 102.644531 30.300781 102.542969 30.445312 102.472656 30.613281 C 102.402344 30.777344 102.367188 30.949219 102.367188 31.128906 L 102.367188 33.496094 C 101.933594 33.636719 101.53125 33.84375 101.164062 34.113281 C 100.792969 34.382812 100.476562 34.703125 100.210938 35.074219 C 99.941406 35.445312 99.738281 35.847656 99.597656 36.28125 C 99.457031 36.714844 99.386719 37.160156 99.386719 37.617188 C 99.386719 38.074219 99.457031 38.519531 99.597656 38.953125 C 99.738281 39.386719 99.941406 39.789062 100.210938 40.160156 C 100.476562 40.53125 100.792969 40.847656 101.164062 41.121094 C 101.53125 41.390625 101.933594 41.59375 102.367188 41.738281 Z M 103.730469 36.003906 C 103.945312 36.003906 104.152344 36.046875 104.347656 36.128906 C 104.546875 36.210938 104.71875 36.328125 104.871094 36.476562 C 105.023438 36.628906 105.136719 36.800781 105.21875 37 C 105.300781 37.195312 105.34375 37.402344 105.34375 37.617188 C 105.34375 37.828125 105.300781 38.035156 105.21875 38.234375 C 105.136719 38.429688 105.023438 38.605469 104.871094 38.753906 C 104.71875 38.90625 104.546875 39.023438 104.347656 39.105469 C 104.152344 39.1875 103.945312 39.226562 103.730469 39.226562 C 103.519531 39.226562 103.3125 39.1875 103.117188 39.105469 C 102.917969 39.023438 102.746094 38.90625 102.59375 38.753906 C 102.441406 38.605469 102.324219 38.429688 102.246094 38.234375 C 102.164062 38.035156 102.121094 37.828125 102.121094 37.617188 C 102.121094 37.402344 102.164062 37.199219 102.246094 37 C 102.328125 36.804688 102.441406 36.628906 102.59375 36.476562 C 102.746094 36.328125 102.917969 36.210938 103.117188 36.128906 C 103.3125 36.046875 103.519531 36.007812 103.730469 36.007812 Z M 44.800781 62.726562 C 45.320312 62.726562 45.824219 62.828125 46.304688 63.027344 C 46.785156 63.226562 47.207031 63.511719 47.578125 63.878906 C 47.945312 64.246094 48.230469 64.671875 48.429688 65.152344 C 48.628906 65.632812 48.726562 66.132812 48.730469 66.65625 C 48.730469 66.835938 48.761719 67.011719 48.832031 67.179688 C 48.902344 67.347656 49 67.492188 49.128906 67.621094 C 49.257812 67.75 49.40625 67.847656 49.570312 67.917969 C 49.738281 67.988281 49.914062 68.023438 50.09375 68.023438 C 50.277344 68.023438 50.449219 67.988281 50.617188 67.917969 C 50.785156 67.847656 50.933594 67.75 51.0625 67.621094 C 51.191406 67.492188 51.289062 67.347656 51.359375 67.179688 C 51.425781 67.011719 51.460938 66.835938 51.460938 66.65625 C 51.460938 66.132812 51.5625 65.632812 51.761719 65.152344 C 51.960938 64.671875 52.246094 64.246094 52.613281 63.878906 C 52.980469 63.511719 53.40625 63.226562 53.886719 63.027344 C 54.367188 62.828125 54.867188 62.726562 55.390625 62.726562 C 55.570312 62.730469 55.75 62.695312 55.917969 62.628906 C 56.085938 62.558594 56.238281 62.460938 56.367188 62.332031 C 56.496094 62.203125 56.597656 62.054688 56.667969 61.886719 C 56.738281 61.71875 56.773438 61.542969 56.773438 61.359375 C 56.773438 61.179688 56.738281 61.003906 56.667969 60.835938 C 56.597656 60.664062 56.496094 60.515625 56.367188 60.390625 C 56.238281 60.261719 56.085938 60.160156 55.917969 60.09375 C 55.75 60.023438 55.570312 59.992188 55.390625 59.996094 C 54.867188 59.992188 54.367188 59.894531 53.886719 59.695312 C 53.40625 59.496094 52.980469 59.210938 52.613281 58.84375 C 52.246094 58.472656 51.960938 58.050781 51.761719 57.570312 C 51.5625 57.089844 51.460938 56.585938 51.460938 56.066406 C 51.460938 55.886719 51.425781 55.710938 51.359375 55.542969 C 51.289062 55.375 51.191406 55.226562 51.0625 55.101562 C 50.933594 54.972656 50.785156 54.875 50.617188 54.804688 C 50.449219 54.734375 50.277344 54.699219 50.09375 54.699219 C 49.914062 54.699219 49.738281 54.734375 49.574219 54.804688 C 49.40625 54.875 49.257812 54.972656 49.128906 55.101562 C 49 55.226562 48.902344 55.375 48.832031 55.542969 C 48.761719 55.710938 48.730469 55.886719 48.730469 56.066406 C 48.726562 56.585938 48.628906 57.089844 48.429688 57.570312 C 48.230469 58.050781 47.945312 58.472656 47.578125 58.84375 C 47.207031 59.210938 46.785156 59.496094 46.304688 59.695312 C 45.824219 59.894531 45.320312 59.992188 44.800781 59.996094 C 44.617188 59.992188 44.441406 60.023438 44.273438 60.09375 C 44.105469 60.160156 43.953125 60.261719 43.824219 60.390625 C 43.695312 60.515625 43.59375 60.664062 43.523438 60.835938 C 43.453125 61.003906 43.417969 61.179688 43.417969 61.359375 C 43.417969 61.542969 43.453125 61.71875 43.523438 61.886719 C 43.59375 62.054688 43.695312 62.203125 43.824219 62.332031 C 43.953125 62.460938 44.105469 62.558594 44.273438 62.628906 C 44.441406 62.695312 44.617188 62.730469 44.800781 62.726562 Z M 50.09375 60.105469 C 50.457031 60.578125 50.878906 60.996094 51.351562 61.359375 C 50.878906 61.722656 50.457031 62.144531 50.09375 62.617188 C 49.730469 62.144531 49.3125 61.722656 48.839844 61.359375 C 49.3125 61 49.730469 60.578125 50.09375 60.105469 Z M 122.261719 35.097656 L 122.261719 31.128906 C 122.261719 30.949219 122.226562 30.773438 122.160156 30.605469 C 122.089844 30.441406 121.992188 30.292969 121.863281 30.164062 C 121.734375 30.035156 121.585938 29.9375 121.417969 29.867188 C 121.25 29.796875 121.078125 29.761719 120.894531 29.761719 C 120.714844 29.761719 120.539062 29.796875 120.371094 29.867188 C 120.207031 29.9375 120.058594 30.035156 119.929688 30.164062 C 119.800781 30.292969 119.703125 30.441406 119.632812 30.605469 C 119.5625 30.773438 119.53125 30.949219 119.53125 31.128906 L 119.53125 35.097656 C 119.097656 35.238281 118.695312 35.445312 118.328125 35.714844 C 117.957031 35.984375 117.640625 36.304688 117.371094 36.675781 C 117.105469 37.046875 116.902344 37.449219 116.761719 37.882812 C 116.621094 38.316406 116.550781 38.761719 116.550781 39.21875 C 116.550781 39.675781 116.621094 40.121094 116.761719 40.554688 C 116.902344 40.988281 117.105469 41.390625 117.371094 41.761719 C 117.640625 42.132812 117.957031 42.453125 118.328125 42.722656 C 118.695312 42.992188 119.097656 43.199219 119.53125 43.339844 L 119.53125 53.5625 C 119.53125 53.742188 119.5625 53.917969 119.632812 54.082031 C 119.703125 54.25 119.800781 54.398438 119.929688 54.527344 C 120.058594 54.65625 120.207031 54.753906 120.371094 54.824219 C 120.539062 54.894531 120.714844 54.925781 120.894531 54.925781 C 121.078125 54.925781 121.25 54.894531 121.417969 54.824219 C 121.585938 54.753906 121.734375 54.65625 121.863281 54.527344 C 121.992188 54.398438 122.089844 54.25 122.160156 54.082031 C 122.226562 53.917969 122.261719 53.742188 122.261719 53.5625 L 122.261719 43.339844 C 122.695312 43.199219 123.097656 42.992188 123.464844 42.722656 C 123.832031 42.453125 124.152344 42.132812 124.417969 41.761719 C 124.6875 41.390625 124.890625 40.988281 125.03125 40.554688 C 125.171875 40.121094 125.242188 39.675781 125.242188 39.21875 C 125.242188 38.761719 125.171875 38.316406 125.03125 37.882812 C 124.890625 37.449219 124.6875 37.046875 124.417969 36.675781 C 124.152344 36.304688 123.832031 35.984375 123.464844 35.714844 C 123.097656 35.445312 122.695312 35.238281 122.261719 35.097656 Z M 120.894531 40.828125 C 120.683594 40.828125 120.476562 40.789062 120.28125 40.707031 C 120.082031 40.625 119.90625 40.507812 119.757812 40.359375 C 119.605469 40.207031 119.488281 40.03125 119.40625 39.835938 C 119.324219 39.636719 119.285156 39.433594 119.285156 39.21875 C 119.285156 39.003906 119.324219 38.800781 119.40625 38.601562 C 119.488281 38.40625 119.605469 38.230469 119.757812 38.078125 C 119.90625 37.929688 120.082031 37.8125 120.28125 37.730469 C 120.476562 37.648438 120.683594 37.609375 120.894531 37.609375 C 121.109375 37.609375 121.316406 37.648438 121.511719 37.730469 C 121.710938 37.8125 121.882812 37.929688 122.035156 38.078125 C 122.1875 38.230469 122.300781 38.40625 122.382812 38.601562 C 122.464844 38.800781 122.507812 39.003906 122.507812 39.21875 C 122.507812 39.433594 122.464844 39.636719 122.382812 39.835938 C 122.300781 40.03125 122.183594 40.207031 122.035156 40.355469 C 121.882812 40.507812 121.710938 40.625 121.511719 40.707031 C 121.316406 40.789062 121.109375 40.828125 120.894531 40.828125 Z M 54.125 48.835938 C 54.464844 48.835938 54.800781 48.867188 55.136719 48.933594 C 55.46875 49 55.792969 49.101562 56.105469 49.230469 C 56.421875 49.359375 56.71875 49.519531 57.003906 49.710938 C 57.285156 49.898438 57.546875 50.113281 57.789062 50.355469 C 58.027344 50.59375 58.242188 50.855469 58.429688 51.136719 C 58.621094 51.421875 58.78125 51.71875 58.910156 52.035156 C 59.039062 52.347656 59.140625 52.671875 59.207031 53.003906 C 59.273438 53.339844 59.304688 53.675781 59.304688 54.015625 C 59.304688 54.199219 59.335938 54.375 59.40625 54.542969 C 59.472656 54.710938 59.574219 54.863281 59.699219 54.992188 C 59.828125 55.121094 59.976562 55.222656 60.144531 55.292969 C 60.316406 55.363281 60.488281 55.398438 60.671875 55.398438 C 60.855469 55.398438 61.03125 55.363281 61.199219 55.292969 C 61.367188 55.222656 61.515625 55.121094 61.644531 54.992188 C 61.773438 54.863281 61.871094 54.710938 61.941406 54.542969 C 62.007812 54.375 62.042969 54.199219 62.039062 54.015625 C 62.039062 53.675781 62.074219 53.339844 62.140625 53.003906 C 62.207031 52.671875 62.304688 52.347656 62.4375 52.03125 C 62.566406 51.71875 62.726562 51.421875 62.917969 51.136719 C 63.105469 50.855469 63.320312 50.59375 63.5625 50.351562 C 63.800781 50.113281 64.0625 49.898438 64.347656 49.707031 C 64.628906 49.519531 64.929688 49.359375 65.242188 49.230469 C 65.558594 49.097656 65.882812 49 66.214844 48.933594 C 66.546875 48.867188 66.886719 48.835938 67.226562 48.835938 C 67.40625 48.832031 67.578125 48.796875 67.742188 48.726562 C 67.910156 48.65625 68.054688 48.554688 68.179688 48.429688 C 68.308594 48.300781 68.40625 48.152344 68.472656 47.988281 C 68.542969 47.820312 68.574219 47.648438 68.574219 47.46875 C 68.574219 47.289062 68.542969 47.113281 68.472656 46.949219 C 68.40625 46.78125 68.308594 46.636719 68.179688 46.507812 C 68.054688 46.378906 67.910156 46.28125 67.742188 46.210938 C 67.578125 46.140625 67.40625 46.105469 67.226562 46.101562 C 66.886719 46.101562 66.546875 46.066406 66.214844 46 C 65.878906 45.933594 65.554688 45.835938 65.242188 45.707031 C 64.925781 45.574219 64.628906 45.414062 64.347656 45.226562 C 64.0625 45.035156 63.800781 44.820312 63.558594 44.582031 C 63.320312 44.339844 63.105469 44.078125 62.914062 43.796875 C 62.726562 43.511719 62.566406 43.214844 62.4375 42.898438 C 62.304688 42.585938 62.207031 42.261719 62.140625 41.925781 C 62.074219 41.59375 62.039062 41.253906 62.039062 40.914062 C 62.042969 40.734375 62.007812 40.558594 61.941406 40.386719 C 61.871094 40.21875 61.773438 40.066406 61.644531 39.9375 C 61.515625 39.808594 61.367188 39.707031 61.199219 39.636719 C 61.03125 39.566406 60.855469 39.53125 60.671875 39.53125 C 60.488281 39.53125 60.316406 39.566406 60.144531 39.636719 C 59.976562 39.707031 59.828125 39.808594 59.699219 39.9375 C 59.574219 40.066406 59.472656 40.21875 59.40625 40.386719 C 59.335938 40.558594 59.304688 40.734375 59.304688 40.914062 C 59.304688 41.253906 59.273438 41.59375 59.207031 41.925781 C 59.140625 42.261719 59.042969 42.582031 58.910156 42.898438 C 58.78125 43.210938 58.621094 43.511719 58.433594 43.792969 C 58.242188 44.078125 58.027344 44.339844 57.789062 44.578125 C 57.546875 44.820312 57.285156 45.035156 57.003906 45.222656 C 56.722656 45.414062 56.421875 45.574219 56.109375 45.703125 C 55.792969 45.835938 55.46875 45.933594 55.136719 46 C 54.804688 46.066406 54.464844 46.101562 54.125 46.101562 C 53.941406 46.097656 53.765625 46.132812 53.597656 46.199219 C 53.429688 46.269531 53.277344 46.367188 53.148438 46.496094 C 53.019531 46.625 52.917969 46.773438 52.847656 46.941406 C 52.777344 47.109375 52.742188 47.285156 52.742188 47.46875 C 52.742188 47.652344 52.777344 47.828125 52.847656 47.996094 C 52.917969 48.164062 53.019531 48.3125 53.148438 48.441406 C 53.277344 48.570312 53.429688 48.667969 53.597656 48.734375 C 53.765625 48.804688 53.941406 48.835938 54.125 48.835938 Z M 60.671875 45.359375 C 61.242188 46.195312 61.945312 46.898438 62.78125 47.46875 C 61.945312 48.039062 61.242188 48.738281 60.671875 49.574219 C 60.105469 48.738281 59.402344 48.039062 58.566406 47.46875 C 59.402344 46.898438 60.105469 46.195312 60.671875 45.359375 Z M 113.679688 43.128906 L 113.679688 31.128906 C 113.679688 30.949219 113.644531 30.773438 113.578125 30.609375 C 113.507812 30.441406 113.410156 30.292969 113.28125 30.164062 C 113.152344 30.039062 113.003906 29.9375 112.835938 29.871094 C 112.671875 29.800781 112.496094 29.765625 112.316406 29.765625 C 112.132812 29.765625 111.960938 29.800781 111.792969 29.871094 C 111.625 29.9375 111.476562 30.039062 111.347656 30.164062 C 111.222656 30.292969 111.121094 30.441406 111.054688 30.609375 C 110.984375 30.773438 110.949219 30.949219 110.949219 31.128906 L 110.949219 43.128906 C 110.515625 43.273438 110.113281 43.480469 109.746094 43.75 C 109.378906 44.019531 109.0625 44.339844 108.792969 44.710938 C 108.527344 45.082031 108.324219 45.484375 108.183594 45.917969 C 108.042969 46.351562 107.972656 46.796875 107.972656 47.253906 C 107.972656 47.710938 108.042969 48.15625 108.183594 48.589844 C 108.324219 49.027344 108.527344 49.429688 108.792969 49.796875 C 109.0625 50.167969 109.378906 50.488281 109.746094 50.757812 C 110.113281 51.027344 110.515625 51.234375 110.949219 51.378906 L 110.949219 53.5625 C 110.949219 53.742188 110.984375 53.914062 111.054688 54.082031 C 111.121094 54.25 111.222656 54.398438 111.347656 54.527344 C 111.476562 54.652344 111.625 54.75 111.792969 54.820312 C 111.960938 54.890625 112.132812 54.925781 112.316406 54.925781 C 112.496094 54.925781 112.671875 54.890625 112.835938 54.820312 C 113.003906 54.75 113.152344 54.652344 113.28125 54.527344 C 113.410156 54.398438 113.507812 54.25 113.578125 54.082031 C 113.644531 53.914062 113.679688 53.742188 113.679688 53.5625 L 113.679688 51.378906 C 114.113281 51.234375 114.515625 51.027344 114.882812 50.757812 C 115.25 50.488281 115.570312 50.167969 115.835938 49.796875 C 116.105469 49.429688 116.308594 49.027344 116.449219 48.589844 C 116.589844 48.15625 116.660156 47.710938 116.660156 47.253906 C 116.660156 46.796875 116.589844 46.351562 116.449219 45.917969 C 116.308594 45.484375 116.105469 45.082031 115.835938 44.710938 C 115.570312 44.339844 115.25 44.019531 114.882812 43.75 C 114.515625 43.480469 114.113281 43.273438 113.679688 43.128906 Z M 112.316406 48.867188 C 112.101562 48.867188 111.894531 48.828125 111.695312 48.746094 C 111.5 48.664062 111.324219 48.546875 111.171875 48.398438 C 111.019531 48.246094 110.902344 48.070312 110.820312 47.875 C 110.738281 47.675781 110.699219 47.46875 110.699219 47.253906 C 110.699219 47.042969 110.738281 46.835938 110.820312 46.636719 C 110.902344 46.441406 111.019531 46.265625 111.171875 46.113281 C 111.324219 45.960938 111.496094 45.84375 111.695312 45.765625 C 111.894531 45.683594 112.097656 45.640625 112.3125 45.640625 C 112.527344 45.640625 112.734375 45.683594 112.929688 45.765625 C 113.128906 45.847656 113.304688 45.964844 113.453125 46.113281 C 113.605469 46.265625 113.722656 46.441406 113.804688 46.640625 C 113.886719 46.835938 113.925781 47.042969 113.925781 47.257812 C 113.925781 47.472656 113.882812 47.675781 113.800781 47.875 C 113.71875 48.070312 113.605469 48.246094 113.453125 48.394531 C 113.300781 48.546875 113.128906 48.664062 112.929688 48.746094 C 112.734375 48.828125 112.527344 48.867188 112.3125 48.867188 Z M 112.316406 48.867188 " fill-opacity="1" fill-rule="nonzero"/></g></svg>