<svg xmlns="http://www.w3.org/2000/svg" xmlns:xlink="http://www.w3.org/1999/xlink" width="200" zoomAndPan="magnify" viewBox="0 0 150 149.999998" height="200" preserveAspectRatio="xMidYMid meet" version="1.0"><defs><linearGradient x1="0" gradientTransform="matrix(0.75, 0, 0, 0.75, 0.00000125, 0.000002)" y1="100" x2="199.999992" gradientUnits="userSpaceOnUse" y2="100" id="b34a4a8c9c"><stop stop-opacity="1" stop-color="rgb(100%, 69.799805%, 30.198669%)" offset="0"/><stop stop-opacity="1" stop-color="rgb(100%, 69.934082%, 30.235291%)" offset="0.015625"/><stop stop-opacity="1" stop-color="rgb(100%, 70.202637%, 30.308533%)" offset="0.03125"/><stop stop-opacity="1" stop-color="rgb(100%, 70.472717%, 30.383301%)" offset="0.046875"/><stop stop-opacity="1" stop-color="rgb(100%, 70.742798%, 30.456543%)" offset="0.0625"/><stop stop-opacity="1" stop-color="rgb(100%, 71.012878%, 30.529785%)" offset="0.078125"/><stop stop-opacity="1" stop-color="rgb(100%, 71.281433%, 30.603027%)" offset="0.09375"/><stop stop-opacity="1" stop-color="rgb(100%, 71.551514%, 30.67627%)" offset="0.109375"/><stop stop-opacity="1" stop-color="rgb(100%, 71.821594%, 30.749512%)" offset="0.125"/><stop stop-opacity="1" stop-color="rgb(100%, 72.091675%, 30.822754%)" offset="0.140625"/><stop stop-opacity="1" stop-color="rgb(100%, 72.360229%, 30.897522%)" offset="0.15625"/><stop stop-opacity="1" stop-color="rgb(100%, 72.63031%, 30.970764%)" offset="0.171875"/><stop stop-opacity="1" stop-color="rgb(100%, 72.900391%, 31.044006%)" offset="0.1875"/><stop stop-opacity="1" stop-color="rgb(100%, 73.170471%, 31.117249%)" offset="0.203125"/><stop stop-opacity="1" stop-color="rgb(100%, 73.439026%, 31.190491%)" offset="0.21875"/><stop stop-opacity="1" stop-color="rgb(100%, 73.709106%, 31.263733%)" offset="0.234375"/><stop stop-opacity="1" stop-color="rgb(100%, 73.979187%, 31.336975%)" offset="0.25"/><stop stop-opacity="1" stop-color="rgb(100%, 74.249268%, 31.410217%)" offset="0.265625"/><stop stop-opacity="1" stop-color="rgb(100%, 74.517822%, 31.484985%)" offset="0.28125"/><stop stop-opacity="1" stop-color="rgb(100%, 74.787903%, 31.558228%)" offset="0.296875"/><stop stop-opacity="1" stop-color="rgb(100%, 75.057983%, 31.63147%)" offset="0.3125"/><stop stop-opacity="1" stop-color="rgb(100%, 75.326538%, 31.704712%)" offset="0.328125"/><stop stop-opacity="1" stop-color="rgb(100%, 75.596619%, 31.777954%)" offset="0.34375"/><stop stop-opacity="1" stop-color="rgb(100%, 75.866699%, 31.851196%)" offset="0.359375"/><stop stop-opacity="1" stop-color="rgb(100%, 76.13678%, 31.924438%)" offset="0.375"/><stop stop-opacity="1" stop-color="rgb(100%, 76.405334%, 31.997681%)" offset="0.390625"/><stop stop-opacity="1" stop-color="rgb(100%, 76.675415%, 32.072449%)" offset="0.40625"/><stop stop-opacity="1" stop-color="rgb(100%, 76.945496%, 32.145691%)" offset="0.421875"/><stop stop-opacity="1" stop-color="rgb(100%, 77.215576%, 32.218933%)" offset="0.4375"/><stop stop-opacity="1" stop-color="rgb(100%, 77.484131%, 32.292175%)" offset="0.453125"/><stop stop-opacity="1" stop-color="rgb(100%, 77.754211%, 32.365417%)" offset="0.46875"/><stop stop-opacity="1" stop-color="rgb(100%, 78.024292%, 32.43866%)" offset="0.484375"/><stop stop-opacity="1" stop-color="rgb(100%, 78.294373%, 32.511902%)" offset="0.5"/><stop stop-opacity="1" stop-color="rgb(100%, 78.562927%, 32.585144%)" offset="0.515625"/><stop stop-opacity="1" stop-color="rgb(100%, 78.833008%, 32.659912%)" offset="0.53125"/><stop stop-opacity="1" stop-color="rgb(100%, 79.103088%, 32.733154%)" offset="0.546875"/><stop stop-opacity="1" stop-color="rgb(100%, 79.373169%, 32.806396%)" offset="0.5625"/><stop stop-opacity="1" stop-color="rgb(100%, 79.641724%, 32.879639%)" offset="0.578125"/><stop stop-opacity="1" stop-color="rgb(100%, 79.911804%, 32.952881%)" offset="0.59375"/><stop stop-opacity="1" stop-color="rgb(100%, 80.181885%, 33.026123%)" offset="0.609375"/><stop stop-opacity="1" stop-color="rgb(100%, 80.451965%, 33.099365%)" offset="0.625"/><stop stop-opacity="1" stop-color="rgb(100%, 80.72052%, 33.172607%)" offset="0.640625"/><stop stop-opacity="1" stop-color="rgb(100%, 80.990601%, 33.247375%)" offset="0.65625"/><stop stop-opacity="1" stop-color="rgb(100%, 81.260681%, 33.320618%)" offset="0.671875"/><stop stop-opacity="1" stop-color="rgb(100%, 81.530762%, 33.39386%)" offset="0.6875"/><stop stop-opacity="1" stop-color="rgb(100%, 81.799316%, 33.467102%)" offset="0.703125"/><stop stop-opacity="1" stop-color="rgb(100%, 82.069397%, 33.540344%)" offset="0.71875"/><stop stop-opacity="1" stop-color="rgb(100%, 82.339478%, 33.613586%)" offset="0.734375"/><stop stop-opacity="1" stop-color="rgb(100%, 82.609558%, 33.686829%)" offset="0.75"/><stop stop-opacity="1" stop-color="rgb(100%, 82.878113%, 33.761597%)" offset="0.765625"/><stop stop-opacity="1" stop-color="rgb(100%, 83.148193%, 33.834839%)" offset="0.78125"/><stop stop-opacity="1" stop-color="rgb(100%, 83.418274%, 33.908081%)" offset="0.796875"/><stop stop-opacity="1" stop-color="rgb(100%, 83.686829%, 33.981323%)" offset="0.8125"/><stop stop-opacity="1" stop-color="rgb(100%, 83.956909%, 34.054565%)" offset="0.828125"/><stop stop-opacity="1" stop-color="rgb(100%, 84.22699%, 34.127808%)" offset="0.84375"/><stop stop-opacity="1" stop-color="rgb(100%, 84.49707%, 34.20105%)" offset="0.859375"/><stop stop-opacity="1" stop-color="rgb(100%, 84.765625%, 34.274292%)" offset="0.875"/><stop stop-opacity="1" stop-color="rgb(100%, 85.035706%, 34.34906%)" offset="0.890625"/><stop stop-opacity="1" stop-color="rgb(100%, 85.305786%, 34.422302%)" offset="0.90625"/><stop stop-opacity="1" stop-color="rgb(100%, 85.575867%, 34.495544%)" offset="0.921875"/><stop stop-opacity="1" stop-color="rgb(100%, 85.844421%, 34.568787%)" offset="0.9375"/><stop stop-opacity="1" stop-color="rgb(100%, 86.114502%, 34.642029%)" offset="0.953125"/><stop stop-opacity="1" stop-color="rgb(100%, 86.384583%, 34.715271%)" offset="0.96875"/><stop stop-opacity="1" stop-color="rgb(100%, 86.654663%, 34.788513%)" offset="0.984375"/><stop stop-opacity="1" stop-color="rgb(100%, 86.923218%, 34.861755%)" offset="1"/></linearGradient><clipPath id="ed12c05652"><path d="M 27.207031 22.503906 L 122.457031 22.503906 L 122.457031 127.503906 L 27.207031 127.503906 Z M 27.207031 22.503906 " clip-rule="nonzero"/></clipPath></defs><rect x="-15" width="180" fill="#ffffff" y="-15" height="179.999997" fill-opacity="1"/><rect x="-15" fill="url(#b34a4a8c9c)" width="180" y="-15" height="179.999997"/><g clip-path="url(#ed12c05652)"><path fill="#000000" d="M 64.464844 51.773438 C 63.753906 50.894531 63.464844 49.804688 63.574219 48.757812 C 63.679688 47.710938 64.183594 46.703125 65.058594 45.992188 L 65.058594 45.988281 C 65.933594 45.277344 67.019531 44.988281 68.0625 45.097656 C 69.105469 45.207031 70.109375 45.710938 70.820312 46.585938 L 70.820312 46.589844 L 72.867188 49.117188 L 78.820312 41.761719 L 78.828125 41.753906 C 79.535156 40.882812 80.539062 40.378906 81.578125 40.269531 C 82.621094 40.164062 83.707031 40.453125 84.578125 41.164062 L 84.589844 41.171875 C 85.457031 41.882812 85.960938 42.890625 86.066406 43.933594 C 86.175781 44.980469 85.886719 46.070312 85.175781 46.945312 L 76.101562 58.15625 C 75.996094 58.285156 75.882812 58.410156 75.765625 58.523438 C 75.640625 58.640625 75.515625 58.75 75.390625 58.84375 C 74.503906 59.519531 73.429688 59.800781 72.398438 59.691406 C 71.371094 59.585938 70.386719 59.089844 69.675781 58.210938 Z M 86.246094 92.019531 L 101.550781 102.007812 L 101.558594 102.011719 L 111.78125 97.648438 C 111.5 93.292969 110.558594 89.449219 108.953125 86.113281 C 107.398438 82.878906 105.214844 80.113281 102.40625 77.820312 C 100.730469 79.085938 98.863281 79.972656 96.8125 80.476562 C 94.453125 81.058594 91.855469 81.125 89.019531 80.683594 C 88.910156 80.667969 88.804688 80.636719 88.707031 80.59375 C 86.800781 79.835938 84.960938 79.488281 83.1875 79.554688 C 81.4375 79.621094 79.726562 80.09375 78.0625 80.980469 L 62.03125 90.683594 C 61.9375 91.050781 61.914062 91.394531 61.960938 91.71875 L 61.964844 91.722656 L 61.964844 91.742188 L 61.96875 91.757812 L 61.972656 91.769531 L 61.972656 91.777344 L 61.976562 91.792969 L 61.976562 91.796875 L 61.980469 91.816406 L 61.980469 91.820312 L 61.984375 91.832031 L 61.984375 91.84375 L 62.007812 91.941406 C 62.144531 92.441406 62.476562 92.921875 63.011719 93.378906 C 63.035156 93.402344 63.058594 93.421875 63.082031 93.445312 C 63.390625 93.703125 63.761719 93.953125 64.199219 94.195312 C 65.253906 94.445312 66.277344 94.496094 67.265625 94.355469 C 68.292969 94.203125 69.296875 93.835938 70.277344 93.253906 L 70.316406 93.230469 C 73.105469 91.609375 75.804688 90.675781 78.414062 90.441406 C 81.082031 90.199219 83.625 90.683594 86.042969 91.894531 C 86.117188 91.929688 86.183594 91.972656 86.246094 92.019531 Z M 89.539062 97.265625 L 89.566406 97.285156 L 99.855469 104 C 99.976562 104.339844 100.03125 104.703125 100.015625 105.066406 C 99.996094 105.492188 99.871094 105.917969 99.640625 106.304688 L 99.601562 106.359375 C 99.207031 106.976562 98.597656 107.378906 97.929688 107.523438 C 97.257812 107.671875 96.535156 107.566406 95.921875 107.171875 L 94.933594 106.539062 L 92.386719 104.90625 L 92.386719 104.902344 L 92.234375 104.792969 L 92.226562 104.789062 L 92.226562 104.785156 C 92.160156 104.738281 92.085938 104.6875 92.007812 104.636719 L 92.007812 104.632812 L 88.539062 102.40625 C 87.9375 102.019531 87.132812 102.195312 86.746094 102.796875 C 86.359375 103.402344 86.535156 104.207031 87.136719 104.597656 L 89.6875 106.234375 C 89.730469 106.265625 89.785156 106.304688 89.851562 106.355469 L 89.894531 106.382812 C 89.972656 106.4375 90.03125 106.480469 90.074219 106.507812 L 90.910156 107.042969 L 90.914062 107.046875 L 90.917969 107.046875 L 90.917969 107.050781 L 90.921875 107.054688 L 90.925781 107.054688 L 90.929688 107.058594 L 90.933594 107.058594 L 90.9375 107.0625 L 93.53125 108.730469 L 93.636719 108.796875 C 94.191406 109.191406 94.554688 109.773438 94.691406 110.40625 C 94.839844 111.078125 94.734375 111.808594 94.34375 112.421875 C 93.949219 113.039062 93.335938 113.441406 92.671875 113.585938 C 92.019531 113.730469 91.320312 113.636719 90.71875 113.273438 L 90.660156 113.234375 L 88.84375 112.066406 L 88.492188 111.839844 L 88.488281 111.839844 L 88.40625 111.785156 L 88.320312 111.730469 C 86.597656 110.613281 85.273438 109.769531 83.949219 108.925781 C 82.449219 107.96875 82.007812 107.691406 81.515625 107.375 C 80.910156 106.988281 80.113281 107.167969 79.726562 107.773438 C 79.34375 108.375 79.519531 109.179688 80.125 109.566406 L 82.558594 111.125 C 83.480469 111.714844 84.40625 112.304688 85.253906 112.847656 C 85.285156 112.867188 85.316406 112.890625 85.347656 112.910156 L 87.429688 114.25 L 88.726562 115.085938 L 88.726562 115.089844 L 88.796875 115.136719 C 89.25 115.449219 89.546875 115.917969 89.65625 116.425781 C 89.769531 116.949219 89.6875 117.515625 89.386719 117.996094 L 89.339844 118.070312 C 89.027344 118.523438 88.5625 118.820312 88.054688 118.929688 C 87.523438 119.042969 86.953125 118.960938 86.46875 118.648438 L 85.074219 117.746094 C 84.925781 117.621094 84.765625 117.503906 84.597656 117.394531 L 84.523438 117.347656 L 79.976562 114.429688 C 79.550781 113.8125 78.988281 113.28125 78.304688 112.882812 C 78.257812 112.851562 78.210938 112.824219 78.164062 112.800781 C 76.917969 112.128906 75.511719 112.011719 74.242188 112.371094 C 74.179688 112.386719 74.117188 112.40625 74.058594 112.425781 C 74.03125 112.304688 74.003906 112.183594 73.96875 112.0625 C 73.628906 110.847656 72.828125 109.765625 71.65625 109.105469 L 71.640625 109.097656 C 70.46875 108.441406 69.136719 108.324219 67.933594 108.664062 C 67.839844 108.691406 67.746094 108.71875 67.65625 108.753906 C 67.632812 108.65625 67.609375 108.558594 67.582031 108.460938 C 67.21875 107.160156 66.359375 105.996094 65.097656 105.285156 L 65.09375 105.285156 C 63.835938 104.574219 62.398438 104.445312 61.101562 104.8125 C 60.988281 104.847656 60.871094 104.882812 60.757812 104.921875 C 60.734375 104.804688 60.703125 104.6875 60.671875 104.574219 C 60.3125 103.292969 59.480469 102.148438 58.253906 101.4375 C 58.210938 101.40625 58.160156 101.378906 58.113281 101.355469 C 57.152344 100.835938 56.089844 100.648438 55.074219 100.753906 L 55.042969 100.757812 L 55.039062 100.757812 L 55 100.761719 L 54.960938 100.769531 L 54.921875 100.773438 L 54.917969 100.773438 L 54.882812 100.777344 L 54.859375 100.78125 L 54.84375 100.785156 L 54.808594 100.789062 L 54.796875 100.792969 L 54.769531 100.796875 L 54.734375 100.800781 L 54.730469 100.804688 L 54.691406 100.808594 L 54.675781 100.8125 L 54.652344 100.816406 L 54.613281 100.824219 L 54.578125 100.832031 L 54.550781 100.835938 L 54.539062 100.839844 L 54.460938 100.855469 L 54.429688 100.863281 L 54.425781 100.863281 L 54.386719 100.875 L 54.371094 100.878906 L 54.347656 100.882812 L 54.3125 100.890625 L 54.308594 100.894531 L 54.273438 100.902344 L 54.191406 100.925781 L 54.160156 100.933594 L 54.132812 100.941406 L 54.085938 100.957031 L 54.070312 100.960938 L 54.046875 100.96875 C 53.960938 100.996094 53.875 101.023438 53.789062 101.054688 L 53.769531 101.0625 L 53.753906 101.070312 L 53.714844 101.085938 L 53.710938 101.085938 L 53.679688 101.097656 L 53.652344 101.109375 L 53.644531 101.113281 L 53.605469 101.128906 L 53.59375 101.132812 L 53.570312 101.144531 L 53.535156 101.15625 L 53.535156 101.160156 L 53.425781 101.207031 L 53.421875 101.207031 L 53.390625 101.222656 L 53.363281 101.234375 L 53.355469 101.238281 L 53.320312 101.257812 L 53.25 101.289062 L 53.25 101.292969 L 53.214844 101.308594 L 53.113281 101.363281 L 53.082031 101.378906 L 53.078125 101.382812 L 53.042969 101.402344 L 53.023438 101.410156 L 53.007812 101.421875 L 52.972656 101.441406 L 52.96875 101.441406 L 52.875 101.5 L 52.859375 101.507812 L 52.839844 101.519531 L 52.804688 101.542969 L 52.773438 101.5625 L 52.753906 101.574219 L 52.738281 101.585938 L 52.707031 101.605469 L 52.644531 101.648438 L 52.613281 101.671875 L 52.59375 101.683594 L 52.582031 101.691406 L 52.550781 101.714844 L 52.457031 101.78125 L 52.4375 101.796875 L 52.425781 101.804688 L 52.398438 101.828125 L 52.386719 101.835938 L 52.367188 101.851562 L 52.335938 101.875 L 52.308594 101.898438 L 52.289062 101.914062 L 52.277344 101.921875 L 52.246094 101.949219 L 52.238281 101.957031 L 52.21875 101.972656 L 52.1875 101.996094 L 52.160156 102.023438 L 52.140625 102.039062 L 52.132812 102.046875 L 52.101562 102.074219 L 52.09375 102.082031 L 52.074219 102.097656 L 52.046875 102.125 L 52.042969 102.125 L 51.988281 102.179688 L 51.960938 102.203125 L 51.878906 102.285156 L 51.859375 102.308594 L 51.851562 102.3125 L 51.824219 102.34375 L 51.769531 102.398438 L 51.769531 102.402344 L 51.722656 102.449219 L 51.71875 102.457031 L 51.679688 102.496094 L 51.667969 102.511719 L 51.640625 102.542969 L 51.636719 102.546875 L 51.617188 102.574219 L 51.589844 102.601562 L 51.554688 102.648438 L 51.539062 102.664062 L 51.515625 102.695312 L 51.511719 102.699219 L 51.492188 102.722656 L 51.46875 102.75 L 51.46875 102.753906 L 51.441406 102.785156 L 51.429688 102.804688 L 51.417969 102.816406 L 51.394531 102.847656 L 51.390625 102.855469 L 51.351562 102.910156 L 51.347656 102.914062 L 51.324219 102.945312 L 51.3125 102.964844 L 51.28125 103.011719 L 51.273438 103.019531 L 51.257812 103.042969 L 51.238281 103.074219 L 51.234375 103.078125 L 51.199219 103.128906 L 51.191406 103.144531 L 51.171875 103.175781 L 51.148438 103.210938 L 51.128906 103.242188 L 51.128906 103.246094 L 51.109375 103.28125 L 51.09375 103.300781 L 51.0625 103.359375 L 51.046875 103.382812 L 51.027344 103.417969 L 49.976562 105.300781 L 49.617188 104.957031 L 46.800781 102.242188 C 46.703125 102.148438 46.59375 102.074219 46.480469 102.015625 L 42.769531 100.15625 L 37.855469 97.703125 C 38.132812 93.324219 39.074219 89.460938 40.683594 86.113281 C 42.242188 82.878906 44.425781 80.113281 47.234375 77.820312 C 48.910156 79.085938 50.773438 79.972656 52.828125 80.476562 C 55.1875 81.058594 57.785156 81.125 60.621094 80.683594 C 60.730469 80.667969 60.835938 80.636719 60.933594 80.59375 C 62.835938 79.835938 64.679688 79.488281 66.453125 79.554688 C 68.203125 79.621094 69.910156 80.09375 71.574219 80.980469 L 72.308594 81.421875 L 60.277344 88.703125 L 60.265625 88.710938 L 60.25 88.722656 L 60.226562 88.738281 L 60.210938 88.746094 L 60.199219 88.753906 L 60.1875 88.765625 L 60.152344 88.789062 L 60.152344 88.792969 L 60.128906 88.808594 L 60.117188 88.820312 L 60.105469 88.828125 L 60.09375 88.839844 L 60.082031 88.847656 L 60.0625 88.867188 L 60.058594 88.867188 L 60.050781 88.878906 L 60.039062 88.890625 L 60.027344 88.898438 L 60.019531 88.910156 L 59.976562 88.953125 L 59.960938 88.976562 L 59.957031 88.976562 L 59.949219 88.988281 L 59.941406 88.996094 L 59.941406 89 L 59.929688 89.007812 L 59.929688 89.011719 L 59.921875 89.019531 L 59.90625 89.042969 L 59.902344 89.042969 L 59.886719 89.066406 L 59.886719 89.070312 L 59.871094 89.089844 L 59.871094 89.09375 L 59.832031 89.152344 L 59.816406 89.179688 L 59.8125 89.191406 L 59.796875 89.214844 L 59.789062 89.230469 L 59.785156 89.242188 L 59.777344 89.253906 L 59.773438 89.265625 L 59.773438 89.269531 L 59.765625 89.28125 L 59.761719 89.292969 L 59.753906 89.308594 L 59.75 89.320312 L 59.738281 89.34375 L 59.738281 89.347656 L 59.734375 89.359375 L 59.726562 89.375 L 59.722656 89.386719 L 59.71875 89.402344 L 59.714844 89.414062 L 59.710938 89.429688 L 59.691406 89.480469 L 59.683594 89.496094 L 59.660156 89.566406 L 59.65625 89.585938 L 59.636719 89.632812 L 59.636719 89.636719 L 59.621094 89.6875 L 59.617188 89.703125 L 59.605469 89.742188 L 59.59375 89.769531 L 59.589844 89.792969 L 59.542969 89.949219 L 59.535156 89.972656 C 59.320312 90.773438 59.28125 91.542969 59.425781 92.28125 L 59.429688 92.300781 L 59.433594 92.328125 L 59.441406 92.363281 L 59.445312 92.375 L 59.460938 92.4375 L 59.503906 92.613281 C 59.773438 93.628906 60.382812 94.542969 61.328125 95.355469 L 61.386719 95.402344 C 61.878906 95.820312 62.460938 96.207031 63.128906 96.570312 C 63.226562 96.621094 63.324219 96.65625 63.425781 96.683594 L 63.425781 96.6875 C 64.859375 97.046875 66.261719 97.128906 67.628906 96.929688 C 69 96.730469 70.324219 96.25 71.597656 95.492188 L 71.621094 95.476562 C 74.085938 94.046875 76.425781 93.226562 78.640625 93.027344 C 80.800781 92.832031 82.867188 93.226562 84.84375 94.203125 Z M 74.820312 79.902344 L 76.726562 78.75 C 76.757812 78.726562 76.792969 78.707031 76.828125 78.6875 C 78.839844 77.617188 80.929688 77.039062 83.097656 76.957031 C 85.195312 76.878906 87.347656 77.273438 89.554688 78.140625 C 91.992188 78.503906 94.210938 78.441406 96.203125 77.953125 C 97.90625 77.53125 99.457031 76.792969 100.855469 75.738281 L 100.601562 75.050781 L 100.605469 75.050781 C 100.390625 74.46875 100.617188 73.800781 101.171875 73.476562 L 108.414062 69.273438 C 108.714844 69.101562 109.054688 69.0625 109.367188 69.136719 L 109.398438 69.144531 L 109.425781 69.152344 L 109.429688 69.152344 L 109.484375 69.171875 L 109.488281 69.171875 L 109.519531 69.183594 L 109.542969 69.191406 L 109.546875 69.195312 C 109.722656 69.265625 109.882812 69.371094 110.011719 69.515625 C 113.710938 73.210938 116.59375 77.324219 118.660156 81.863281 C 120.730469 86.414062 121.980469 91.375 122.398438 96.746094 C 122.4375 97.304688 122.125 97.804688 121.648438 98.027344 L 115.425781 101.320312 C 114.898438 101.601562 114.265625 101.476562 113.875 101.0625 L 112.832031 100.027344 L 102.582031 104.402344 C 102.609375 104.660156 102.617188 104.925781 102.605469 105.1875 C 102.5625 106.042969 102.3125 106.902344 101.835938 107.679688 C 101.820312 107.707031 101.800781 107.738281 101.785156 107.765625 C 101.003906 108.988281 99.796875 109.78125 98.476562 110.070312 C 98.089844 110.15625 97.691406 110.199219 97.292969 110.195312 C 97.476562 111.414062 97.238281 112.707031 96.523438 113.828125 C 95.746094 115.050781 94.535156 115.84375 93.21875 116.132812 C 92.90625 116.203125 92.582031 116.242188 92.261719 116.253906 C 92.402344 117.320312 92.183594 118.445312 91.558594 119.421875 L 91.554688 119.425781 L 91.546875 119.441406 L 91.503906 119.503906 C 90.804688 120.550781 89.746094 121.226562 88.601562 121.476562 C 87.996094 121.609375 87.363281 121.621094 86.742188 121.503906 C 86.714844 122.296875 86.492188 123.089844 86.050781 123.8125 C 86.035156 123.839844 86.019531 123.871094 86 123.902344 C 85.300781 124.992188 84.21875 125.699219 83.042969 125.953125 C 81.875 126.207031 80.605469 126.019531 79.523438 125.320312 L 79.511719 125.316406 L 77.882812 124.265625 L 77.667969 124.648438 C 76.960938 125.914062 75.800781 126.777344 74.503906 127.144531 C 73.234375 127.503906 71.828125 127.386719 70.582031 126.710938 C 70.53125 126.6875 70.484375 126.660156 70.4375 126.628906 C 69.46875 126.0625 68.742188 125.226562 68.308594 124.269531 C 67.8125 124.640625 67.257812 124.917969 66.671875 125.082031 C 65.46875 125.421875 64.140625 125.304688 62.96875 124.648438 L 62.953125 124.640625 C 61.929688 124.066406 61.191406 123.171875 60.792969 122.152344 C 60.429688 122.355469 60.042969 122.515625 59.640625 122.628906 C 58.347656 122.996094 56.910156 122.867188 55.648438 122.15625 C 54.386719 121.445312 53.527344 120.28125 53.164062 118.980469 C 52.882812 117.988281 52.894531 116.910156 53.226562 115.894531 C 52.316406 115.929688 51.386719 115.730469 50.535156 115.265625 C 50.484375 115.242188 50.4375 115.214844 50.390625 115.1875 C 49.167969 114.472656 48.332031 113.328125 47.976562 112.050781 C 47.609375 110.75 47.738281 109.308594 48.445312 108.042969 L 48.667969 107.644531 L 47.820312 106.832031 L 45.152344 104.261719 L 41.613281 102.492188 L 36.765625 100.066406 L 35.761719 101.0625 C 35.375 101.476562 34.742188 101.601562 34.214844 101.320312 L 27.992188 98.027344 C 27.515625 97.804688 27.199219 97.304688 27.242188 96.746094 C 27.660156 91.375 28.90625 86.414062 30.980469 81.863281 C 33.046875 77.324219 35.929688 73.207031 39.628906 69.515625 C 39.757812 69.371094 39.917969 69.265625 40.09375 69.195312 L 40.09375 69.191406 L 40.121094 69.183594 L 40.152344 69.171875 L 40.210938 69.152344 L 40.214844 69.152344 L 40.242188 69.144531 L 40.273438 69.136719 C 40.585938 69.0625 40.925781 69.101562 41.226562 69.273438 L 48.46875 73.476562 C 49.019531 73.800781 49.25 74.46875 49.035156 75.050781 L 48.785156 75.738281 C 50.179688 76.792969 51.730469 77.53125 53.4375 77.953125 C 55.429688 78.441406 57.648438 78.503906 60.085938 78.140625 C 62.292969 77.273438 64.445312 76.878906 66.542969 76.957031 C 68.710938 77.039062 70.800781 77.617188 72.808594 78.6875 C 72.84375 78.707031 72.878906 78.726562 72.914062 78.746094 Z M 103.480469 75.363281 L 103.414062 75.179688 L 108.84375 72.03125 C 112.007812 75.328125 114.496094 78.964844 116.304688 82.941406 C 118.136719 86.964844 119.28125 91.351562 119.734375 96.097656 L 115.054688 98.578125 L 114.394531 97.917969 C 114.125 93.046875 113.089844 88.734375 111.289062 84.984375 C 109.464844 81.191406 106.863281 77.984375 103.480469 75.363281 Z M 88.707031 80.59375 C 88.175781 80.367188 87.84375 79.800781 87.9375 79.203125 Z M 51.402344 108.070312 L 50.707031 109.316406 C 50.351562 109.957031 50.285156 110.6875 50.472656 111.347656 C 50.652344 111.988281 51.066406 112.5625 51.675781 112.921875 C 51.710938 112.941406 51.75 112.960938 51.78125 112.984375 C 52.410156 113.316406 53.113281 113.371094 53.753906 113.191406 C 54.308594 113.035156 54.8125 112.699219 55.171875 112.214844 L 56.214844 110.351562 C 56.273438 110.246094 56.316406 110.175781 56.347656 110.125 L 56.351562 110.125 L 56.355469 110.117188 L 56.457031 109.957031 L 57.902344 107.371094 L 57.90625 107.367188 L 57.90625 107.363281 L 57.910156 107.359375 C 57.925781 107.324219 57.945312 107.289062 57.964844 107.253906 C 58.300781 106.628906 58.355469 105.917969 58.175781 105.277344 C 57.996094 104.636719 57.582031 104.0625 56.972656 103.699219 C 56.933594 103.679688 56.898438 103.660156 56.863281 103.636719 C 56.375 103.378906 55.839844 103.289062 55.324219 103.34375 L 55.320312 103.347656 L 55.289062 103.351562 L 55.265625 103.351562 L 55.257812 103.355469 L 55.195312 103.363281 L 55.1875 103.363281 L 55.167969 103.367188 L 55.164062 103.367188 L 55.074219 103.386719 L 55.070312 103.386719 L 55.050781 103.390625 L 55.042969 103.390625 L 54.992188 103.402344 L 54.980469 103.40625 L 54.972656 103.410156 L 54.953125 103.414062 L 54.894531 103.429688 L 54.890625 103.429688 L 54.863281 103.4375 L 54.855469 103.441406 L 54.820312 103.453125 L 54.78125 103.464844 L 54.769531 103.46875 L 54.761719 103.46875 L 54.6875 103.496094 L 54.679688 103.5 L 54.667969 103.503906 L 54.59375 103.535156 L 54.589844 103.535156 L 54.558594 103.546875 L 54.484375 103.582031 L 54.472656 103.585938 C 54.164062 103.734375 53.878906 103.941406 53.644531 104.203125 L 53.640625 104.203125 L 53.601562 104.25 L 53.597656 104.25 C 53.570312 104.285156 53.542969 104.320312 53.515625 104.355469 L 53.511719 104.355469 L 53.5 104.371094 L 53.492188 104.378906 L 53.488281 104.386719 L 53.476562 104.402344 L 53.472656 104.40625 L 53.464844 104.417969 L 53.453125 104.433594 L 53.453125 104.4375 L 53.441406 104.453125 L 53.433594 104.460938 L 53.429688 104.46875 L 53.417969 104.484375 L 53.414062 104.488281 L 53.398438 104.519531 L 53.394531 104.519531 L 53.386719 104.535156 L 53.378906 104.546875 L 53.375 104.550781 L 53.351562 104.585938 L 53.34375 104.601562 L 53.339844 104.605469 L 53.332031 104.621094 L 53.324219 104.632812 L 53.320312 104.636719 L 53.3125 104.65625 L 53.308594 104.664062 L 53.300781 104.675781 L 53.289062 104.691406 L 51.417969 108.042969 Z M 58.6875 111.289062 L 57.65625 113.140625 C 57.632812 113.1875 57.605469 113.234375 57.578125 113.277344 C 57.511719 113.390625 57.441406 113.5 57.371094 113.605469 L 55.894531 116.246094 C 55.539062 116.886719 55.472656 117.617188 55.660156 118.277344 C 55.84375 118.9375 56.277344 119.527344 56.917969 119.882812 L 56.917969 119.886719 C 57.554688 120.242188 58.285156 120.308594 58.941406 120.121094 C 59.597656 119.9375 60.1875 119.5 60.542969 118.859375 L 62.046875 116.167969 C 62.082031 116.105469 62.117188 116.050781 62.160156 116 L 62.199219 115.9375 L 62.207031 115.925781 L 63.421875 113.753906 L 63.433594 113.726562 L 63.4375 113.726562 L 63.4375 113.722656 L 63.441406 113.722656 L 63.441406 113.714844 L 63.449219 113.707031 L 64.851562 111.195312 C 65.207031 110.554688 65.269531 109.824219 65.085938 109.164062 C 64.902344 108.503906 64.46875 107.914062 63.828125 107.558594 L 63.828125 107.554688 C 63.191406 107.199219 62.460938 107.132812 61.804688 107.320312 C 61.152344 107.503906 60.566406 107.933594 60.207031 108.566406 L 60.203125 108.582031 L 58.695312 111.277344 L 58.691406 111.28125 L 58.691406 111.285156 Z M 35.246094 97.917969 C 35.511719 93.046875 36.550781 88.734375 38.351562 84.984375 C 40.171875 81.191406 42.777344 77.984375 46.160156 75.359375 L 46.222656 75.179688 L 40.796875 72.03125 C 37.632812 75.328125 35.144531 78.964844 33.335938 82.941406 C 31.503906 86.964844 30.359375 91.351562 29.902344 96.097656 L 34.582031 98.578125 Z M 65.753906 114.902344 L 64.53125 117.09375 L 64.53125 117.089844 L 63.339844 119.226562 C 63.03125 119.777344 62.972656 120.410156 63.132812 120.980469 C 63.289062 121.53125 63.644531 122.027344 64.167969 122.339844 C 64.203125 122.355469 64.238281 122.378906 64.273438 122.398438 C 64.8125 122.683594 65.421875 122.730469 65.972656 122.574219 C 66.519531 122.421875 67.011719 122.0625 67.324219 121.539062 C 67.34375 121.5 67.367188 121.460938 67.390625 121.421875 L 68.722656 119.035156 C 68.75 118.984375 68.785156 118.9375 68.816406 118.890625 L 68.871094 118.808594 L 68.917969 118.730469 L 69.578125 117.542969 L 71.230469 114.589844 C 71.25 114.546875 71.273438 114.507812 71.296875 114.46875 C 71.582031 113.929688 71.628906 113.316406 71.472656 112.765625 C 71.316406 112.214844 70.960938 111.71875 70.441406 111.40625 C 70.402344 111.386719 70.371094 111.367188 70.335938 111.347656 C 69.796875 111.0625 69.1875 111.015625 68.636719 111.171875 C 68.066406 111.332031 67.558594 111.707031 67.25 112.261719 L 65.882812 114.710938 C 65.847656 114.773438 65.808594 114.832031 65.765625 114.886719 Z M 73.339844 116.136719 L 71.976562 118.578125 L 71.1875 119.992188 L 71.183594 120 L 71.175781 120.007812 L 71.175781 120.015625 L 71.164062 120.027344 L 71.164062 120.035156 L 71.15625 120.042969 L 70.757812 120.761719 C 70.398438 121.402344 70.335938 122.132812 70.519531 122.792969 C 70.707031 123.453125 71.140625 124.042969 71.777344 124.398438 L 71.789062 124.40625 C 72.425781 124.761719 73.148438 124.824219 73.804688 124.636719 C 74.460938 124.453125 75.046875 124.015625 75.40625 123.375 L 76.410156 121.578125 L 76.433594 121.535156 L 77.351562 119.890625 L 77.949219 118.820312 C 77.96875 118.78125 77.992188 118.742188 78.015625 118.703125 C 78.101562 118.539062 78.171875 118.371094 78.21875 118.199219 L 78.222656 118.1875 L 78.222656 118.183594 L 78.226562 118.171875 L 78.242188 118.109375 L 78.246094 118.097656 L 78.246094 118.09375 L 78.25 118.085938 L 78.253906 118.070312 L 78.253906 118.058594 L 78.261719 118.035156 L 78.261719 118.03125 L 78.265625 118.019531 L 78.265625 118.007812 L 78.269531 118 L 78.269531 117.996094 L 78.273438 117.984375 L 78.273438 117.96875 C 78.328125 117.691406 78.335938 117.40625 78.304688 117.128906 L 78.296875 117.074219 L 78.296875 117.066406 C 78.28125 116.949219 78.253906 116.835938 78.222656 116.722656 C 78.042969 116.082031 77.628906 115.507812 77.019531 115.144531 C 76.984375 115.125 76.949219 115.105469 76.914062 115.085938 C 76.289062 114.75 75.582031 114.695312 74.941406 114.875 C 74.285156 115.0625 73.695312 115.496094 73.339844 116.136719 Z M 80.546875 119.402344 C 80.464844 119.609375 80.367188 119.8125 80.257812 120.011719 L 80.25 120.027344 L 79.570312 121.242188 L 79.15625 121.988281 C 79.1875 122.011719 79.21875 122.03125 79.253906 122.054688 L 80.914062 123.125 C 81.398438 123.4375 81.96875 123.523438 82.496094 123.40625 C 83.023438 123.292969 83.507812 122.980469 83.816406 122.496094 L 83.851562 122.441406 C 84.136719 121.964844 84.210938 121.414062 84.097656 120.902344 C 84.011719 120.496094 83.808594 120.117188 83.5 119.824219 L 83.480469 119.8125 C 83.382812 119.75 83.296875 119.679688 83.222656 119.601562 L 83.195312 119.582031 L 83.128906 119.535156 L 80.882812 118.09375 C 80.867188 118.21875 80.847656 118.34375 80.824219 118.46875 C 80.78125 118.675781 80.730469 118.878906 80.660156 119.085938 L 80.65625 119.101562 L 80.652344 119.109375 L 80.636719 119.15625 L 80.636719 119.164062 L 80.628906 119.183594 L 80.621094 119.207031 L 80.613281 119.226562 L 80.613281 119.230469 L 80.601562 119.253906 L 80.59375 119.28125 L 80.589844 119.285156 L 80.585938 119.304688 L 80.574219 119.328125 L 80.566406 119.347656 L 80.566406 119.351562 L 80.558594 119.375 Z M 74.820312 74.621094 C 83.472656 70.300781 89.589844 64.902344 93.226562 58.175781 C 96.828125 51.519531 98.023438 43.507812 96.875 33.902344 C 93.019531 33.164062 89.171875 32.175781 85.472656 30.820312 C 81.722656 29.449219 78.121094 27.703125 74.820312 25.472656 C 71.515625 27.703125 67.917969 29.449219 64.164062 30.820312 C 60.46875 32.175781 56.617188 33.164062 52.765625 33.902344 C 51.613281 43.507812 52.8125 51.519531 56.410156 58.175781 C 60.046875 64.902344 66.167969 70.300781 74.820312 74.621094 Z M 95.511719 59.417969 C 99.492188 52.054688 100.742188 43.21875 99.324219 32.625 C 99.246094 32.03125 98.777344 31.585938 98.210938 31.507812 C 94.210938 30.785156 90.199219 29.785156 86.355469 28.378906 C 82.535156 26.976562 78.878906 25.171875 75.566406 22.828125 C 75.097656 22.5 74.488281 22.523438 74.054688 22.84375 C 70.746094 25.179688 67.097656 26.980469 63.28125 28.378906 C 59.421875 29.789062 55.390625 30.792969 51.371094 31.519531 C 50.804688 31.621094 50.390625 32.082031 50.316406 32.625 C 48.898438 43.21875 50.144531 52.054688 54.128906 59.417969 C 58.109375 66.785156 64.796875 72.628906 74.257812 77.242188 C 74.625 77.421875 75.039062 77.410156 75.382812 77.242188 L 75.386719 77.242188 L 75.398438 77.234375 C 84.847656 72.621094 91.53125 66.777344 95.511719 59.417969 Z M 74.820312 30.808594 C 72.015625 32.460938 69.066406 33.824219 66.03125 34.953125 C 63.070312 36.054688 60.019531 36.9375 56.945312 37.644531 C 56.488281 44.96875 57.65625 51.117188 60.546875 56.308594 C 63.472656 61.566406 68.199219 65.898438 74.820312 69.523438 C 81.441406 65.898438 86.167969 61.566406 89.09375 56.308594 C 91.984375 51.117188 93.148438 44.972656 92.691406 37.644531 C 89.613281 36.933594 86.5625 36.054688 83.601562 34.953125 C 80.574219 33.824219 77.625 32.460938 74.820312 30.808594 Z M 65.136719 32.507812 C 61.992188 33.679688 58.734375 34.59375 55.445312 35.3125 C 54.867188 35.4375 54.460938 35.9375 54.425781 36.503906 C 53.761719 44.761719 55.007812 51.691406 58.28125 57.570312 C 61.554688 63.449219 66.824219 68.21875 74.214844 72.152344 C 74.609375 72.359375 75.058594 72.34375 75.421875 72.152344 C 82.8125 68.21875 88.085938 63.449219 91.359375 57.570312 C 94.632812 51.6875 95.878906 44.75 95.210938 36.484375 C 95.167969 35.886719 94.726562 35.414062 94.167969 35.304688 C 90.894531 34.589844 87.648438 33.675781 84.507812 32.507812 C 81.363281 31.339844 78.332031 29.917969 75.496094 28.183594 C 75.058594 27.917969 74.527344 27.941406 74.125 28.199219 C 71.285156 29.925781 68.265625 31.34375 65.136719 32.507812 Z M 66.152344 49.023438 C 66.109375 49.414062 66.214844 49.816406 66.472656 50.132812 L 71.683594 56.570312 C 71.941406 56.886719 72.296875 57.066406 72.660156 57.105469 C 73.058594 57.148438 73.476562 57.035156 73.828125 56.765625 C 73.882812 56.726562 73.929688 56.683594 73.96875 56.648438 C 74.015625 56.605469 74.058594 56.558594 74.09375 56.515625 L 83.167969 45.308594 C 83.425781 44.988281 83.527344 44.585938 83.488281 44.199219 C 83.449219 43.8125 83.265625 43.441406 82.945312 43.179688 L 82.941406 43.175781 C 82.625 42.921875 82.226562 42.816406 81.84375 42.859375 C 81.457031 42.898438 81.089844 43.082031 80.832031 43.402344 L 80.824219 43.40625 L 74.0625 51.757812 L 74.058594 51.769531 C 73.910156 51.949219 73.738281 52.085938 73.53125 52.1875 C 73.316406 52.289062 73.101562 52.335938 72.867188 52.335938 C 72.640625 52.335938 72.433594 52.289062 72.21875 52.191406 L 72.199219 52.1875 C 71.992188 52.085938 71.816406 51.945312 71.664062 51.753906 L 68.8125 48.230469 L 68.808594 48.226562 C 68.550781 47.910156 68.183594 47.722656 67.796875 47.683594 C 67.410156 47.644531 67.011719 47.75 66.695312 48.007812 L 66.691406 48.007812 C 66.375 48.265625 66.191406 48.636719 66.152344 49.023438 Z M 66.152344 49.023438 " fill-opacity="1" fill-rule="evenodd"/></g></svg>