<svg xmlns="http://www.w3.org/2000/svg" xmlns:xlink="http://www.w3.org/1999/xlink" width="200" zoomAndPan="magnify" viewBox="0 0 150 149.999998" height="200" preserveAspectRatio="xMidYMid meet" version="1.0"><defs><linearGradient x1="0" gradientTransform="matrix(0.75, 0, 0, 0.75, 0.00000125, 0.000002)" y1="100" x2="199.999992" gradientUnits="userSpaceOnUse" y2="100" id="238358932f"><stop stop-opacity="1" stop-color="rgb(100%, 69.799805%, 30.198669%)" offset="0"/><stop stop-opacity="1" stop-color="rgb(100%, 69.934082%, 30.235291%)" offset="0.015625"/><stop stop-opacity="1" stop-color="rgb(100%, 70.202637%, 30.308533%)" offset="0.03125"/><stop stop-opacity="1" stop-color="rgb(100%, 70.472717%, 30.383301%)" offset="0.046875"/><stop stop-opacity="1" stop-color="rgb(100%, 70.742798%, 30.456543%)" offset="0.0625"/><stop stop-opacity="1" stop-color="rgb(100%, 71.012878%, 30.529785%)" offset="0.078125"/><stop stop-opacity="1" stop-color="rgb(100%, 71.281433%, 30.603027%)" offset="0.09375"/><stop stop-opacity="1" stop-color="rgb(100%, 71.551514%, 30.67627%)" offset="0.109375"/><stop stop-opacity="1" stop-color="rgb(100%, 71.821594%, 30.749512%)" offset="0.125"/><stop stop-opacity="1" stop-color="rgb(100%, 72.091675%, 30.822754%)" offset="0.140625"/><stop stop-opacity="1" stop-color="rgb(100%, 72.360229%, 30.897522%)" offset="0.15625"/><stop stop-opacity="1" stop-color="rgb(100%, 72.63031%, 30.970764%)" offset="0.171875"/><stop stop-opacity="1" stop-color="rgb(100%, 72.900391%, 31.044006%)" offset="0.1875"/><stop stop-opacity="1" stop-color="rgb(100%, 73.170471%, 31.117249%)" offset="0.203125"/><stop stop-opacity="1" stop-color="rgb(100%, 73.439026%, 31.190491%)" offset="0.21875"/><stop stop-opacity="1" stop-color="rgb(100%, 73.709106%, 31.263733%)" offset="0.234375"/><stop stop-opacity="1" stop-color="rgb(100%, 73.979187%, 31.336975%)" offset="0.25"/><stop stop-opacity="1" stop-color="rgb(100%, 74.249268%, 31.410217%)" offset="0.265625"/><stop stop-opacity="1" stop-color="rgb(100%, 74.517822%, 31.484985%)" offset="0.28125"/><stop stop-opacity="1" stop-color="rgb(100%, 74.787903%, 31.558228%)" offset="0.296875"/><stop stop-opacity="1" stop-color="rgb(100%, 75.057983%, 31.63147%)" offset="0.3125"/><stop stop-opacity="1" stop-color="rgb(100%, 75.326538%, 31.704712%)" offset="0.328125"/><stop stop-opacity="1" stop-color="rgb(100%, 75.596619%, 31.777954%)" offset="0.34375"/><stop stop-opacity="1" stop-color="rgb(100%, 75.866699%, 31.851196%)" offset="0.359375"/><stop stop-opacity="1" stop-color="rgb(100%, 76.13678%, 31.924438%)" offset="0.375"/><stop stop-opacity="1" stop-color="rgb(100%, 76.405334%, 31.997681%)" offset="0.390625"/><stop stop-opacity="1" stop-color="rgb(100%, 76.675415%, 32.072449%)" offset="0.40625"/><stop stop-opacity="1" stop-color="rgb(100%, 76.945496%, 32.145691%)" offset="0.421875"/><stop stop-opacity="1" stop-color="rgb(100%, 77.215576%, 32.218933%)" offset="0.4375"/><stop stop-opacity="1" stop-color="rgb(100%, 77.484131%, 32.292175%)" offset="0.453125"/><stop stop-opacity="1" stop-color="rgb(100%, 77.754211%, 32.365417%)" offset="0.46875"/><stop stop-opacity="1" stop-color="rgb(100%, 78.024292%, 32.43866%)" offset="0.484375"/><stop stop-opacity="1" stop-color="rgb(100%, 78.294373%, 32.511902%)" offset="0.5"/><stop stop-opacity="1" stop-color="rgb(100%, 78.562927%, 32.585144%)" offset="0.515625"/><stop stop-opacity="1" stop-color="rgb(100%, 78.833008%, 32.659912%)" offset="0.53125"/><stop stop-opacity="1" stop-color="rgb(100%, 79.103088%, 32.733154%)" offset="0.546875"/><stop stop-opacity="1" stop-color="rgb(100%, 79.373169%, 32.806396%)" offset="0.5625"/><stop stop-opacity="1" stop-color="rgb(100%, 79.641724%, 32.879639%)" offset="0.578125"/><stop stop-opacity="1" stop-color="rgb(100%, 79.911804%, 32.952881%)" offset="0.59375"/><stop stop-opacity="1" stop-color="rgb(100%, 80.181885%, 33.026123%)" offset="0.609375"/><stop stop-opacity="1" stop-color="rgb(100%, 80.451965%, 33.099365%)" offset="0.625"/><stop stop-opacity="1" stop-color="rgb(100%, 80.72052%, 33.172607%)" offset="0.640625"/><stop stop-opacity="1" stop-color="rgb(100%, 80.990601%, 33.247375%)" offset="0.65625"/><stop stop-opacity="1" stop-color="rgb(100%, 81.260681%, 33.320618%)" offset="0.671875"/><stop stop-opacity="1" stop-color="rgb(100%, 81.530762%, 33.39386%)" offset="0.6875"/><stop stop-opacity="1" stop-color="rgb(100%, 81.799316%, 33.467102%)" offset="0.703125"/><stop stop-opacity="1" stop-color="rgb(100%, 82.069397%, 33.540344%)" offset="0.71875"/><stop stop-opacity="1" stop-color="rgb(100%, 82.339478%, 33.613586%)" offset="0.734375"/><stop stop-opacity="1" stop-color="rgb(100%, 82.609558%, 33.686829%)" offset="0.75"/><stop stop-opacity="1" stop-color="rgb(100%, 82.878113%, 33.761597%)" offset="0.765625"/><stop stop-opacity="1" stop-color="rgb(100%, 83.148193%, 33.834839%)" offset="0.78125"/><stop stop-opacity="1" stop-color="rgb(100%, 83.418274%, 33.908081%)" offset="0.796875"/><stop stop-opacity="1" stop-color="rgb(100%, 83.686829%, 33.981323%)" offset="0.8125"/><stop stop-opacity="1" stop-color="rgb(100%, 83.956909%, 34.054565%)" offset="0.828125"/><stop stop-opacity="1" stop-color="rgb(100%, 84.22699%, 34.127808%)" offset="0.84375"/><stop stop-opacity="1" stop-color="rgb(100%, 84.49707%, 34.20105%)" offset="0.859375"/><stop stop-opacity="1" stop-color="rgb(100%, 84.765625%, 34.274292%)" offset="0.875"/><stop stop-opacity="1" stop-color="rgb(100%, 85.035706%, 34.34906%)" offset="0.890625"/><stop stop-opacity="1" stop-color="rgb(100%, 85.305786%, 34.422302%)" offset="0.90625"/><stop stop-opacity="1" stop-color="rgb(100%, 85.575867%, 34.495544%)" offset="0.921875"/><stop stop-opacity="1" stop-color="rgb(100%, 85.844421%, 34.568787%)" offset="0.9375"/><stop stop-opacity="1" stop-color="rgb(100%, 86.114502%, 34.642029%)" offset="0.953125"/><stop stop-opacity="1" stop-color="rgb(100%, 86.384583%, 34.715271%)" offset="0.96875"/><stop stop-opacity="1" stop-color="rgb(100%, 86.654663%, 34.788513%)" offset="0.984375"/><stop stop-opacity="1" stop-color="rgb(100%, 86.923218%, 34.861755%)" offset="1"/></linearGradient><clipPath id="f960d517bb"><path d="M 29.292969 27.386719 L 120.792969 27.386719 L 120.792969 122.636719 L 29.292969 122.636719 Z M 29.292969 27.386719 " clip-rule="nonzero"/></clipPath></defs><rect x="-15" width="180" fill="#ffffff" y="-15" height="179.999997" fill-opacity="1"/><rect x="-15" fill="url(#238358932f)" width="180" y="-15" height="179.999997"/><g clip-path="url(#f960d517bb)"><path fill="#1e1e1e" d="M 119.746094 35.3125 C 117.824219 35.945312 116.296875 37.46875 115.664062 39.390625 C 115.464844 40 114.894531 40.414062 114.253906 40.414062 C 113.609375 40.414062 113.039062 40 112.839844 39.390625 C 112.207031 37.46875 110.679688 35.945312 108.757812 35.3125 C 108.148438 35.109375 107.734375 34.542969 107.734375 33.898438 C 107.734375 33.257812 108.148438 32.6875 108.757812 32.488281 C 110.679688 31.855469 112.207031 30.328125 112.839844 28.410156 C 113.039062 27.796875 113.609375 27.386719 114.253906 27.386719 C 114.894531 27.386719 115.464844 27.796875 115.664062 28.410156 C 116.300781 30.332031 117.824219 31.855469 119.746094 32.488281 C 120.355469 32.6875 120.769531 33.257812 120.769531 33.898438 C 120.769531 34.542969 120.355469 35.113281 119.746094 35.3125 Z M 57.277344 30.910156 C 56.457031 30.910156 55.789062 31.574219 55.789062 32.398438 L 55.789062 34.910156 L 53.273438 34.910156 C 52.449219 34.910156 51.785156 35.578125 51.785156 36.398438 C 51.785156 37.21875 52.449219 37.886719 53.273438 37.886719 L 55.789062 37.886719 L 55.789062 40.402344 C 55.789062 41.222656 56.457031 41.886719 57.277344 41.886719 C 58.097656 41.886719 58.765625 41.222656 58.765625 40.402344 L 58.765625 37.886719 L 61.28125 37.886719 C 62.105469 37.886719 62.769531 37.21875 62.769531 36.398438 C 62.769531 35.578125 62.105469 34.910156 61.28125 34.910156 L 58.765625 34.910156 L 58.765625 32.398438 C 58.765625 31.574219 58.097656 30.910156 57.277344 30.910156 Z M 42.570312 90.921875 L 55.039062 84.136719 C 59.765625 81.566406 64.753906 81.101562 69.871094 82.75 C 72.425781 83.574219 74.980469 84.394531 77.535156 85.214844 C 79.957031 85.996094 82.378906 86.777344 84.800781 87.554688 L 92 83.644531 C 93.542969 82.804688 95.332031 82.613281 97.03125 83.113281 C 98.730469 83.613281 100.128906 84.742188 100.96875 86.289062 C 101.03125 86.402344 101.085938 86.515625 101.140625 86.632812 L 105.246094 84.398438 C 108.453125 82.660156 112.480469 83.847656 114.21875 87.046875 C 115.960938 90.246094 114.773438 94.269531 111.570312 96.011719 L 81.75 112.230469 C 79.601562 113.398438 77.378906 113.984375 75.105469 113.984375 C 73.652344 113.984375 72.179688 113.746094 70.6875 113.265625 L 64.246094 111.1875 C 61.238281 110.222656 58.304688 110.496094 55.523438 112.007812 L 54.914062 112.339844 L 56.199219 114.570312 C 56.574219 115.21875 56.675781 115.984375 56.476562 116.714844 C 56.277344 117.445312 55.808594 118.054688 55.152344 118.425781 L 48.5 122.257812 C 48.070312 122.507812 47.589844 122.636719 47.101562 122.636719 C 46.855469 122.636719 46.609375 122.605469 46.367188 122.539062 C 45.636719 122.347656 45.023438 121.878906 44.644531 121.222656 L 29.671875 95.242188 C 29.296875 94.59375 29.195312 93.835938 29.390625 93.109375 C 29.582031 92.375 30.050781 91.765625 30.707031 91.386719 L 37.363281 87.554688 C 38.015625 87.179688 38.777344 87.078125 39.507812 87.273438 C 40.238281 87.46875 40.847656 87.9375 41.226562 88.589844 Z M 88.582031 88.886719 C 89.839844 89.558594 90.847656 90.621094 91.453125 91.902344 L 98.519531 88.058594 C 98.46875 87.941406 98.417969 87.824219 98.355469 87.710938 C 97.894531 86.859375 97.125 86.242188 96.1875 85.96875 C 95.253906 85.691406 94.273438 85.796875 93.425781 86.257812 Z M 44.054688 93.5 L 53.425781 109.761719 L 54.101562 109.394531 C 57.625 107.480469 61.347656 107.132812 65.15625 108.359375 L 71.601562 110.4375 C 74.613281 111.40625 77.550781 111.128906 80.328125 109.617188 L 110.148438 93.402344 C 111.90625 92.441406 112.5625 90.226562 111.605469 88.46875 C 110.648438 86.707031 108.433594 86.054688 106.667969 87.011719 L 101 90.09375 C 100.992188 90.097656 100.984375 90.101562 100.976562 90.109375 L 92.082031 94.945312 C 92.0625 95.558594 91.957031 96.164062 91.769531 96.75 C 91.226562 98.421875 90.0625 99.785156 88.488281 100.59375 C 87.535156 101.082031 86.507812 101.328125 85.472656 101.328125 C 84.792969 101.328125 84.109375 101.21875 83.445312 101.007812 C 80.613281 100.097656 77.777344 99.183594 74.945312 98.273438 C 72.792969 97.578125 70.636719 96.882812 68.484375 96.191406 C 67.699219 95.941406 67.269531 95.101562 67.523438 94.320312 C 67.773438 93.539062 68.613281 93.109375 69.394531 93.359375 C 71.550781 94.054688 73.703125 94.746094 75.859375 95.441406 C 78.691406 96.351562 81.523438 97.265625 84.359375 98.175781 C 85.28125 98.472656 86.261719 98.390625 87.132812 97.945312 C 88 97.5 88.640625 96.75 88.9375 95.832031 C 89.070312 95.421875 89.128906 94.992188 89.109375 94.558594 C 89.105469 94.507812 89.109375 94.460938 89.109375 94.410156 C 89.097656 94.363281 89.089844 94.316406 89.082031 94.269531 C 88.90625 92.867188 87.925781 91.6875 86.589844 91.257812 C 83.265625 90.183594 79.945312 89.117188 76.621094 88.046875 C 74.066406 87.226562 71.511719 86.402344 68.957031 85.582031 C 64.648438 84.191406 60.445312 84.582031 56.464844 86.75 Z M 99.78125 54.175781 C 99.78125 62.019531 93.398438 68.398438 85.550781 68.398438 C 77.707031 68.398438 71.324219 62.019531 71.324219 54.175781 C 71.324219 46.332031 77.707031 39.953125 85.550781 39.953125 C 93.398438 39.953125 99.78125 46.332031 99.78125 54.175781 Z M 85.546875 58.714844 L 92.523438 51.742188 C 93.105469 51.160156 93.105469 50.21875 92.523438 49.636719 C 91.941406 49.058594 91 49.058594 90.417969 49.636719 L 84.496094 55.558594 L 80.6875 51.75 C 80.109375 51.167969 79.164062 51.167969 78.582031 51.746094 C 78.003906 52.328125 78 53.269531 78.582031 53.851562 L 83.441406 58.710938 C 83.722656 58.992188 84.101562 59.148438 84.496094 59.148438 C 84.890625 59.148438 85.269531 58.992188 85.546875 58.714844 Z M 109.625 44.058594 C 110.738281 44.480469 111.367188 45.621094 111.128906 46.773438 C 109.355469 55.351562 106.835938 62.214844 103.417969 67.765625 C 99.183594 74.65625 93.464844 79.546875 86.421875 82.308594 C 86.136719 82.417969 85.84375 82.472656 85.550781 82.472656 C 85.265625 82.472656 84.976562 82.421875 84.695312 82.3125 C 77.640625 79.546875 71.921875 74.65625 67.6875 67.765625 C 64.273438 62.214844 61.75 55.351562 59.976562 46.777344 C 59.976562 46.777344 59.976562 46.777344 59.976562 46.773438 C 59.742188 45.621094 60.371094 44.480469 61.472656 44.0625 C 66.664062 42.132812 70.753906 37.839844 72.417969 32.574219 C 72.734375 31.578125 73.648438 30.910156 74.691406 30.910156 L 96.414062 30.910156 C 97.457031 30.910156 98.371094 31.578125 98.6875 32.570312 C 100.355469 37.839844 104.441406 42.132812 109.625 44.058594 Z M 108.113281 46.664062 C 102.441406 44.398438 97.953125 39.667969 95.988281 33.882812 L 75.121094 33.882812 C 73.160156 39.664062 68.671875 44.390625 62.996094 46.664062 C 66.746094 64.367188 73.921875 74.800781 85.550781 79.453125 C 97.179688 74.800781 104.363281 64.367188 108.113281 46.664062 Z M 50.339844 69.589844 C 50.339844 70.234375 50.75 70.800781 51.359375 71.003906 C 53.285156 71.636719 54.808594 73.160156 55.441406 75.082031 C 55.640625 75.691406 56.210938 76.101562 56.855469 76.101562 C 57.496094 76.101562 58.066406 75.691406 58.269531 75.082031 C 58.898438 73.160156 60.425781 71.636719 62.351562 71.003906 C 62.960938 70.800781 63.371094 70.230469 63.371094 69.589844 C 63.371094 68.949219 62.960938 68.378906 62.351562 68.179688 C 60.425781 67.542969 58.902344 66.019531 58.269531 64.097656 C 58.066406 63.488281 57.496094 63.078125 56.855469 63.078125 C 56.214844 63.078125 55.644531 63.488281 55.441406 64.097656 C 54.808594 66.023438 53.28125 67.546875 51.363281 68.175781 C 50.75 68.378906 50.339844 68.949219 50.339844 69.589844 Z M 113.828125 74.941406 C 114.652344 74.941406 115.316406 74.277344 115.316406 73.457031 L 115.316406 70.941406 L 117.835938 70.941406 C 118.65625 70.941406 119.324219 70.273438 119.324219 69.453125 C 119.324219 68.632812 118.65625 67.964844 117.835938 67.964844 L 115.316406 67.964844 L 115.316406 65.449219 C 115.316406 64.628906 114.652344 63.964844 113.828125 63.964844 C 113.007812 63.964844 112.34375 64.628906 112.34375 65.449219 L 112.34375 67.964844 L 109.824219 67.964844 C 109.003906 67.964844 108.335938 68.632812 108.335938 69.453125 C 108.335938 70.273438 109.003906 70.941406 109.824219 70.941406 L 112.34375 70.941406 L 112.34375 73.457031 C 112.34375 74.277344 113.007812 74.941406 113.828125 74.941406 Z M 113.828125 74.941406 " fill-opacity="1" fill-rule="nonzero"/></g></svg>